<svg width="25" height="25" viewBox="0 0 25 25" fill="none" xmlns="http://www.w3.org/2000/svg">
<path d="M22.4147 3.29229H6.52585L5.96041 1.93396C5.81701 1.58879 5.58748 1.30703 5.30436 1.12862C5.02125 0.950211 4.69892 0.884215 4.38308 0.939989L2.80612 1.21684C2.58326 1.25465 2.37037 1.35308 2.18345 1.50476C1.59614 1.97847 1.10801 2.61119 0.757714 3.35281C0.407415 4.09443 0.204566 4.92458 0.165228 5.77753L0.16415 5.79036C0.0640738 6.97115 0.110433 8.16343 0.301688 9.32763C0.499187 10.5328 0.812489 11.7059 1.23521 12.823C2.06719 15.0519 3.3341 17.2312 4.89901 19.1256C6.46392 21.0199 8.26435 22.5533 10.1057 23.5605C11.0285 24.0721 11.9976 24.4514 12.9933 24.6904C13.6327 24.8415 14.2826 24.9186 14.934 24.9207C15.2619 24.921 15.5895 24.8997 15.9155 24.8569L15.9262 24.8556C16.6308 24.8079 17.3166 24.5624 17.9292 24.1383C18.5419 23.7143 19.0646 23.1235 19.456 22.4127C19.5813 22.1864 19.6626 21.9287 19.6938 21.659L19.8271 20.5468H22.4147C22.8649 20.5462 23.2965 20.3294 23.6149 19.9441C23.9332 19.5588 24.1123 19.0363 24.1128 18.4913V5.34776C24.1123 4.8028 23.9332 4.28034 23.6149 3.895C23.2965 3.50966 22.8649 3.2929 22.4147 3.29229ZM22.4147 4.20018C22.5475 4.20023 22.6788 4.23431 22.7999 4.30016L14.9308 13.8253C14.787 13.9985 14.5924 14.0957 14.3895 14.0957C14.1867 14.0957 13.992 13.9985 13.8482 13.8253L7.87466 6.59458C7.86215 6.57973 7.84882 6.56592 7.83476 6.55327C7.80762 6.4108 7.76646 6.27278 7.71218 6.14217L6.90378 4.20018H22.4147ZM11.0013 11.6632L8.38375 14.8317C7.22118 13.4146 6.28246 11.7309 5.77975 10.0353C5.7655 9.99353 5.7634 9.9471 5.77379 9.90366C5.78418 9.86023 5.80644 9.82234 5.83694 9.79621L7.28991 8.42263C7.48639 8.2368 7.64191 7.9951 7.74265 7.71901L11.0013 11.6632ZM4.4909 1.83846C4.52925 1.83168 4.56797 1.82827 4.60673 1.82825C4.7491 1.82775 4.88871 1.8757 5.00964 1.96663C5.13057 2.05757 5.22796 2.18781 5.29067 2.34252L7.04239 6.55066C7.1242 6.74326 7.14758 6.96451 7.10846 7.17583C7.06934 7.38716 6.97019 7.57517 6.8283 7.70709L6.50607 8.01175C5.76165 6.69468 5.10553 5.3076 4.54396 3.86381C4.29753 3.22556 4.07486 2.58209 3.87971 1.94599L4.4909 1.83846ZM18.9517 21.5284C18.9362 21.6653 18.895 21.7961 18.8312 21.9106C18.5045 22.5039 18.0683 22.9969 17.557 23.3507C17.0457 23.7045 16.4733 23.9093 15.8853 23.9489H15.8849C15.8681 23.95 15.8512 23.952 15.8344 23.9542C14.9333 24.0655 14.0235 24.0131 13.1352 23.7987C12.1971 23.573 11.284 23.2153 10.4145 22.7329C8.65479 21.7704 6.93096 20.3009 5.42943 18.4833C3.9279 16.6657 2.71377 14.5792 1.91873 12.4492C1.52014 11.3968 1.22465 10.2916 1.03827 9.15604C0.861133 8.08084 0.817808 6.97963 0.909736 5.88892C0.911565 5.86855 0.913205 5.84801 0.914143 5.82713C0.946893 5.11534 1.1161 4.42256 1.40838 3.80366C1.70065 3.18475 2.10795 2.65672 2.59803 2.26137C2.69267 2.1841 2.8007 2.13415 2.9138 2.11537L3.12128 2.07894C3.33644 2.79799 3.58583 3.52669 3.86447 4.24813C4.45011 5.75386 5.13545 7.19977 5.91377 8.57169L5.37529 9.08074C5.22015 9.22425 5.10714 9.42422 5.05286 9.65125C4.99859 9.87829 5.00592 10.1204 5.07377 10.342C6.15744 13.9972 9.13571 17.6022 12.1554 18.914C12.3384 18.9962 12.5385 19.0051 12.726 18.9394C12.9136 18.8737 13.0788 18.7369 13.1973 18.5492L13.6179 17.8973C14.7513 18.8394 15.9458 19.669 17.1897 20.3778C17.7859 20.7152 18.388 21.0172 18.9818 21.2775L18.9517 21.5284ZM19.1805 19.6195L19.0918 20.3593C18.5663 20.1231 18.0347 19.8535 17.5074 19.5551C16.3146 18.8754 15.1687 18.0812 14.0806 17.1802L14.3323 16.7901C14.4413 16.6184 14.5966 16.4984 14.7712 16.451C14.9457 16.4036 15.1285 16.4319 15.2876 16.531L18.764 18.6512C18.9096 18.7379 19.0286 18.8786 19.1035 19.0528C19.1784 19.227 19.2054 19.4256 19.1804 19.6197L19.1805 19.6195ZM22.4147 19.6388H19.9324C19.958 19.2729 19.8926 18.9061 19.7445 18.5856C19.5965 18.2651 19.3725 18.0056 19.1015 17.8406L15.625 15.7202C15.3105 15.5293 14.9511 15.4759 14.6078 15.5691C14.2644 15.6622 13.9583 15.8962 13.7411 16.2313L12.6063 17.9903C12.5847 18.0272 12.5534 18.0542 12.5175 18.0668C12.4816 18.0793 12.4433 18.0768 12.4087 18.0595C11.1955 17.5324 9.98986 16.6091 8.9279 15.457L11.5317 12.3053L13.3177 14.4672C13.6022 14.8106 13.9876 15.0035 14.3894 15.0035C14.7912 15.0035 15.1766 14.8106 15.4611 14.4672L17.2178 12.3414L23.024 19.3693C22.8536 19.5435 22.6377 19.6391 22.4147 19.6389L22.4147 19.6388ZM23.3628 18.4912V18.495L17.7481 11.6991L23.3085 4.96866C23.3442 5.09039 23.3625 5.21858 23.3628 5.34776L23.3628 18.4912Z" fill="black"/>
</svg>
