<svg width="25" height="25" viewBox="0 0 25 25" fill="none" xmlns="http://www.w3.org/2000/svg">
<path d="M18.4021 19.6731C18.3564 19.6731 18.3112 19.6639 18.2691 19.6463C18.2271 19.6286 18.1889 19.6027 18.157 19.5701C18.003 19.4136 17.833 19.2738 17.6496 19.153C17.5781 19.1011 17.5292 19.0236 17.5134 18.9367C17.4975 18.8498 17.5158 18.7601 17.5645 18.6863C17.6132 18.6125 17.6885 18.5603 17.7747 18.5407C17.8609 18.521 17.9513 18.5353 18.0272 18.5807C18.2504 18.7284 18.4575 18.899 18.6451 19.0898C18.6924 19.1381 18.7244 19.1992 18.7371 19.2656C18.7498 19.3319 18.7426 19.4005 18.7164 19.4628C18.6902 19.5251 18.6463 19.5783 18.59 19.6157C18.5337 19.6531 18.4676 19.6731 18.4 19.6731H18.4021Z" fill="black"/>
<path d="M19.37 24.8844H6.35387C6.26284 24.8844 6.17553 24.8483 6.11116 24.7839C6.04678 24.7196 6.01062 24.6323 6.01062 24.5413V21.7109C6.01171 20.7149 6.40806 19.76 7.1127 19.0557C7.81734 18.3515 8.77273 17.9553 9.76924 17.9542H15.9409C16.032 17.9542 16.1193 17.9904 16.1836 18.0547C16.248 18.119 16.2842 18.2063 16.2842 18.2973C16.2842 18.3883 16.248 18.4756 16.1836 18.5399C16.1193 18.6042 16.032 18.6404 15.9409 18.6404H9.76924C8.95474 18.6413 8.17387 18.9651 7.59793 19.5407C7.022 20.1164 6.69803 20.8969 6.69713 21.7109V24.1983H19.0268V21.7109C19.0274 21.4713 18.9996 21.2324 18.9437 20.9994C18.9318 20.9553 18.9289 20.9092 18.935 20.8639C18.9412 20.8186 18.9564 20.775 18.9796 20.7357C19.0029 20.6963 19.0338 20.662 19.0705 20.6347C19.1072 20.6075 19.149 20.5878 19.1934 20.577C19.2379 20.5661 19.284 20.5642 19.3292 20.5714C19.3743 20.5786 19.4176 20.5947 19.4564 20.6188C19.4953 20.643 19.5289 20.6746 19.5553 20.7119C19.5817 20.7492 19.6004 20.7915 19.6103 20.8361C19.6791 21.1221 19.7137 21.4154 19.7133 21.7096V24.5413C19.7133 24.6323 19.6771 24.7196 19.6127 24.7839C19.5484 24.8483 19.4611 24.8844 19.37 24.8844Z" fill="black"/>
<path d="M12.8612 16.6485C12.1497 16.6485 11.4542 16.4376 10.8627 16.0425C10.2711 15.6475 9.81002 15.0859 9.53775 14.4289C9.26547 13.772 9.19424 13.049 9.33304 12.3516C9.47184 11.6541 9.81445 11.0135 10.3175 10.5106C10.8206 10.0078 11.4616 9.66537 12.1594 9.52664C12.8572 9.38791 13.5805 9.45911 14.2378 9.73124C14.8952 10.0034 15.457 10.4642 15.8522 11.0555C16.2475 11.6468 16.4585 12.3419 16.4585 13.053C16.4575 14.0063 16.0782 14.9202 15.4038 15.5943C14.7294 16.2684 13.815 16.6475 12.8612 16.6485ZM12.8612 10.1437C12.2855 10.1437 11.7227 10.3143 11.2441 10.634C10.7654 10.9537 10.3923 11.4081 10.172 11.9397C9.95168 12.4713 9.89404 13.0562 10.0064 13.6206C10.1187 14.1849 10.3959 14.7033 10.803 15.1102C11.2101 15.5171 11.7287 15.7942 12.2933 15.9064C12.858 16.0187 13.4432 15.9611 13.9751 15.7409C14.507 15.5207 14.9616 15.1478 15.2814 14.6693C15.6013 14.1909 15.772 13.6284 15.772 13.053C15.7712 12.2817 15.4642 11.5422 14.9185 10.9967C14.3728 10.4513 13.6329 10.1445 12.8612 10.1437Z" fill="black"/>
<path d="M16.2052 24.8844H9.51867C9.42763 24.8844 9.34032 24.8483 9.27595 24.784C9.21158 24.7196 9.17542 24.6324 9.17542 24.5414V22.5831C9.17542 22.4921 9.21158 22.4048 9.27595 22.3405C9.34032 22.2761 9.42763 22.24 9.51867 22.24C9.6097 22.24 9.69701 22.2761 9.76138 22.3405C9.82576 22.4048 9.86192 22.4921 9.86192 22.5831V24.1983H15.862V22.5831C15.862 22.4921 15.8981 22.4048 15.9625 22.3405C16.0269 22.2761 16.1142 22.24 16.2052 22.24C16.2963 22.24 16.3836 22.2761 16.448 22.3405C16.5123 22.4048 16.5485 22.4921 16.5485 22.5831V24.5414C16.5485 24.6324 16.5123 24.7196 16.448 24.784C16.3836 24.8483 16.2963 24.8844 16.2052 24.8844Z" fill="black"/>
<path d="M23.3452 10.5094C23.2896 10.5094 23.2348 10.4958 23.1856 10.4699L21.412 9.53815L19.6388 10.4699C19.5821 10.4998 19.5182 10.5133 19.4542 10.5087C19.3903 10.5041 19.3289 10.4818 19.277 10.4441C19.2252 10.4065 19.1849 10.3551 19.1607 10.2957C19.1366 10.2364 19.1295 10.1715 19.1404 10.1083L19.4792 8.13461L18.0447 6.73553C17.9988 6.69088 17.9664 6.63429 17.951 6.57215C17.9356 6.51002 17.9379 6.44482 17.9576 6.38392C17.9774 6.32303 18.0138 6.26888 18.0627 6.22758C18.1117 6.18629 18.1712 6.15949 18.2345 6.15024L20.2175 5.86205L21.1041 4.06638C21.1357 4.01281 21.1807 3.9684 21.2347 3.93755C21.2887 3.9067 21.3498 3.89047 21.412 3.89047C21.4742 3.89047 21.5354 3.9067 21.5894 3.93755C21.6434 3.9684 21.6884 4.01281 21.7199 4.06638L22.6066 5.86205L24.5895 6.15024C24.6529 6.15944 24.7125 6.18619 24.7615 6.22747C24.8104 6.26874 24.8469 6.32289 24.8667 6.38379C24.8865 6.4447 24.8888 6.50992 24.8734 6.57208C24.8581 6.63424 24.8256 6.69086 24.7797 6.73553L23.3449 8.13324L23.6837 10.107C23.6921 10.1562 23.6897 10.2067 23.6766 10.255C23.6635 10.3032 23.64 10.3479 23.6078 10.3861C23.5755 10.4243 23.5353 10.455 23.49 10.4761C23.4446 10.4972 23.3952 10.508 23.3452 10.508V10.5094ZM21.412 8.80739C21.4677 8.8073 21.5225 8.82084 21.5716 8.84684L22.8894 9.53917L22.6374 8.07354C22.6281 8.01863 22.6322 7.96226 22.6495 7.9093C22.6667 7.85634 22.6967 7.80838 22.7366 7.76957L23.8025 6.73107L22.3292 6.51733C22.2741 6.50934 22.2218 6.48808 22.1768 6.45539C22.1318 6.4227 22.0954 6.37955 22.0707 6.32967L21.412 4.99544L20.7533 6.3283C20.7287 6.37818 20.6923 6.42132 20.6473 6.45402C20.6022 6.48671 20.5499 6.50797 20.4949 6.51596L19.0216 6.7297L20.0878 7.7682C20.1277 7.80704 20.1576 7.85502 20.1748 7.90798C20.192 7.96093 20.1961 8.01729 20.1866 8.07217L19.9347 9.53849L21.2524 8.84616C21.3016 8.82016 21.3564 8.80661 21.412 8.8067V8.80739Z" fill="black"/>
<path d="M14.8156 7.50164C14.7601 7.50161 14.7053 7.48819 14.656 7.46253L12.8824 6.5297L11.1088 7.46185C11.0522 7.49164 10.9883 7.50498 10.9244 7.50037C10.8605 7.49576 10.7992 7.47338 10.7474 7.43576C10.6956 7.39814 10.6553 7.34678 10.6312 7.28749C10.607 7.22819 10.6 7.16333 10.6108 7.10024L10.9496 5.12617L9.51477 3.72846C9.46888 3.68379 9.43641 3.62717 9.42104 3.565C9.40567 3.50284 9.40801 3.43762 9.42779 3.37672C9.44758 3.31582 9.48402 3.26167 9.533 3.2204C9.58198 3.17912 9.64154 3.15237 9.70493 3.14317L11.6879 2.85533L12.5735 1.06034C12.6051 1.00677 12.6501 0.962361 12.7041 0.931509C12.7581 0.900658 12.8192 0.88443 12.8814 0.88443C12.9436 0.88443 13.0047 0.900658 13.0587 0.931509C13.1127 0.962361 13.1577 1.00677 13.1893 1.06034L14.0769 2.85601L16.0599 3.14385C16.1233 3.15306 16.1829 3.17981 16.2319 3.22108C16.2808 3.26236 16.3173 3.31651 16.3371 3.37741C16.3568 3.43831 16.3592 3.50353 16.3438 3.56569C16.3284 3.62785 16.296 3.68447 16.2501 3.72915L14.8153 5.12685L15.1541 7.10093C15.1625 7.15016 15.16 7.20062 15.1469 7.2488C15.1337 7.29698 15.1102 7.34171 15.078 7.37987C15.0458 7.41803 15.0056 7.4487 14.9603 7.46973C14.915 7.49076 14.8656 7.50166 14.8156 7.50164ZM12.8824 5.79997C12.938 5.7999 12.9928 5.81332 13.042 5.83908L14.3584 6.53142L14.1065 5.0651C14.0971 5.01027 14.1012 4.95398 14.1184 4.90109C14.1356 4.8482 14.1655 4.80028 14.2053 4.76147L15.2715 3.72297L13.7996 3.51061C13.7445 3.50258 13.6922 3.48127 13.6471 3.44851C13.6021 3.41576 13.5657 3.37254 13.5411 3.3226L12.8824 1.98734L12.2237 3.32123C12.1991 3.37117 12.1628 3.41439 12.1177 3.44714C12.0727 3.47989 12.0204 3.5012 11.9653 3.50923L10.492 3.72297L11.5582 4.76147C11.598 4.80028 11.6279 4.8482 11.6451 4.90109C11.6623 4.95398 11.6664 5.01027 11.657 5.0651L11.4064 6.53142L12.7242 5.83908C12.773 5.81354 12.8273 5.80012 12.8824 5.79997Z" fill="black"/>
<path d="M6.28622 10.5094C6.23049 10.5094 6.17558 10.4959 6.12626 10.47L4.35302 9.53816L2.57943 10.4693C2.52274 10.4991 2.45885 10.5124 2.39497 10.5078C2.33109 10.5032 2.26978 10.4808 2.21796 10.4432C2.16614 10.4056 2.12589 10.3542 2.10175 10.2949C2.07761 10.2356 2.07055 10.1708 2.08137 10.1077L2.42016 8.13394L0.985361 6.73555C0.940067 6.6908 0.908123 6.63433 0.893104 6.57247C0.878084 6.51061 0.880581 6.44579 0.900315 6.38526C0.920049 6.32474 0.956242 6.27089 1.00485 6.22975C1.05345 6.18862 1.11254 6.1618 1.17552 6.15232L3.1585 5.86413L4.04512 4.06845C4.07668 4.01488 4.12169 3.97048 4.17569 3.93963C4.22969 3.90878 4.29082 3.89255 4.35302 3.89255C4.41522 3.89255 4.47634 3.90878 4.53034 3.93963C4.58434 3.97048 4.62935 4.01488 4.66091 4.06845L5.54754 5.86413L7.53051 6.15232C7.59388 6.16157 7.6534 6.18836 7.70233 6.22966C7.75126 6.27095 7.78766 6.32511 7.80741 6.386C7.82716 6.44689 7.82947 6.51209 7.81408 6.57423C7.79869 6.63636 7.76622 6.69296 7.72033 6.73761L6.28587 8.13531L6.62466 10.109C6.63311 10.1583 6.6307 10.2088 6.61758 10.257C6.60447 10.3052 6.58097 10.35 6.54873 10.3882C6.5165 10.4264 6.4763 10.4571 6.43096 10.4782C6.38561 10.4992 6.33622 10.5101 6.28622 10.5101V10.5094ZM4.35302 8.8074C4.40865 8.80731 4.46345 8.82086 4.51263 8.84686L5.83038 9.53919L5.57843 8.07356C5.56899 8.01868 5.57306 7.96232 5.59028 7.90936C5.6075 7.85641 5.63736 7.80843 5.67729 7.76959L6.74343 6.73109L5.27019 6.51735C5.21511 6.50936 5.16281 6.4881 5.11778 6.45541C5.07275 6.42271 5.03635 6.37957 5.01172 6.32969L4.35302 4.99545L3.69431 6.32969C3.66968 6.37957 3.63328 6.42271 3.58825 6.45541C3.54323 6.4881 3.49092 6.50936 3.43584 6.51735L1.9626 6.73109L3.02669 7.76959C3.06698 7.80823 3.09722 7.85611 3.11481 7.90908C3.1324 7.96205 3.13679 8.01851 3.1276 8.07356L2.87566 9.53851L4.1934 8.84617C4.24258 8.82017 4.29738 8.80663 4.35302 8.80672V8.8074Z" fill="black"/>
</svg>
