<svg width="24" height="24" viewBox="0 0 24 24" fill="none" xmlns="http://www.w3.org/2000/svg">
<g clip-path="url(#clip0_115_4)">
<path d="M23.4 10.4388C23.3993 10.4383 23.3987 10.4376 23.3982 10.437L13.6081 0.647278C13.1908 0.229797 12.636 0 12.0458 0C11.4557 0 10.9008 0.229797 10.4834 0.647278L0.698389 10.4321C0.695093 10.4354 0.691614 10.4388 0.688501 10.4421C-0.168432 11.304 -0.166968 12.7024 0.692713 13.5621C1.08547 13.955 1.60403 14.1824 2.15866 14.2064C2.18136 14.2086 2.20407 14.2097 2.22695 14.2097H2.61697V21.4142C2.61697 22.84 3.77712 24 5.20297 24H9.03317C9.42153 24 9.73629 23.6851 9.73629 23.2969V17.6484C9.73629 16.9979 10.2656 16.4687 10.9162 16.4687H13.1754C13.826 16.4687 14.3551 16.9979 14.3551 17.6484V23.2969C14.3551 23.6851 14.6699 24 15.0583 24H18.8885C20.3145 24 21.4745 22.84 21.4745 21.4142V14.2097H21.8363C22.4262 14.2097 22.981 13.9799 23.3987 13.5623C24.2593 12.7013 24.2597 11.3004 23.4 10.4388ZM22.4043 12.568C22.2525 12.7198 22.0507 12.8035 21.8363 12.8035H20.7713C20.383 12.8035 20.0682 13.1182 20.0682 13.5066V21.4142C20.0682 22.0646 19.539 22.5938 18.8885 22.5938H15.7614V17.6484C15.7614 16.2226 14.6014 15.0624 13.1754 15.0624H10.9162C9.4902 15.0624 8.33004 16.2226 8.33004 17.6484V22.5938H5.20297C4.55258 22.5938 4.02322 22.0646 4.02322 21.4142V13.5066C4.02322 13.1182 3.70846 12.8035 3.32009 12.8035H2.27346C2.26248 12.8027 2.25167 12.8022 2.2405 12.802C2.03103 12.7983 1.83456 12.7152 1.68734 12.5678C1.37423 12.2547 1.37423 11.7451 1.68734 11.4318C1.68752 11.4318 1.68752 11.4316 1.68771 11.4315L1.68826 11.4309L11.478 1.64154C11.6296 1.48975 11.8312 1.40625 12.0458 1.40625C12.2602 1.40625 12.4618 1.48975 12.6136 1.64154L22.4011 11.4289C22.4026 11.4304 22.4043 11.4318 22.4057 11.4333C22.7172 11.7469 22.7166 12.2554 22.4043 12.568Z" fill="black"/>
</g>
<defs>
<clipPath id="clip0_115_4">
<rect width="24" height="24" fill="white"/>
</clipPath>
</defs>
</svg>
