<svg width="24" height="25" viewBox="0 0 24 25" fill="none" xmlns="http://www.w3.org/2000/svg">
<path d="M0.807132 4.58789C0.999314 4.58789 1.15504 4.42393 1.15504 4.22168V1.28564C1.15504 0.980615 1.39082 0.732422 1.6806 0.732422H18.9384C19.2282 0.732422 19.464 0.980615 19.464 1.28564V10.2622C19.464 10.4645 19.6197 10.6284 19.8119 10.6284C20.0041 10.6284 20.1598 10.4645 20.1598 10.2622V1.28564C20.1598 0.576709 19.6119 0 18.9384 0H1.6806C1.00715 0 0.459229 0.576758 0.459229 1.28564V4.22168C0.459229 4.42393 0.614997 4.58789 0.807132 4.58789Z" fill="black"/>
<path d="M19.0631 16.7242C19.0631 15.6763 18.253 14.8239 17.2573 14.8239C16.2618 14.8239 15.4519 15.6763 15.4519 16.7242C15.4519 17.7724 16.2618 18.6251 17.2573 18.6251C18.253 18.6251 19.0631 17.7724 19.0631 16.7242ZM16.1477 16.7242C16.1477 16.0802 16.6454 15.5563 17.2573 15.5563C17.8694 15.5563 18.3673 16.0802 18.3673 16.7242C18.3673 17.3685 17.8694 17.8927 17.2573 17.8927C16.6455 17.8927 16.1477 17.3685 16.1477 16.7242Z" fill="black"/>
<path d="M22.2779 20.752H20.1596V20.1656C20.5948 20.3291 21.0936 20.1481 21.3326 19.7123L21.7532 18.945C21.8836 18.7075 21.9183 18.4307 21.8508 18.1655C21.7834 17.9006 21.622 17.6791 21.3964 17.5418L21.0151 17.3099C21.0424 17.1155 21.0562 16.9194 21.0562 16.7241C21.0562 16.5289 21.0424 16.3328 21.0151 16.1383L21.3965 15.9064C21.862 15.6231 22.0221 14.9937 21.7533 14.5035L21.3325 13.7359C21.0936 13.3002 20.5952 13.1191 20.1598 13.2826V11.9702C20.1598 11.768 20.0041 11.604 19.8119 11.604C19.6197 11.604 19.464 11.768 19.464 11.9702V13.4693C19.213 13.2801 18.9424 13.1243 18.6539 13.0046V12.542C18.6539 11.9758 18.2162 11.5151 17.6784 11.5151H16.836C16.2981 11.5151 15.8605 11.9758 15.8605 12.542V13.0046C15.5119 13.1492 15.1891 13.3456 14.896 13.5912L14.5148 13.3594C14.0486 13.077 13.4509 13.2459 13.1823 13.7358L12.761 14.5035C12.4922 14.9938 12.6523 15.6231 13.118 15.9065L13.4997 16.1385C13.4723 16.333 13.4585 16.5291 13.4585 16.7242C13.4585 16.9192 13.4723 17.1153 13.4997 17.3099L13.1179 17.5419C12.6521 17.8253 12.492 18.4548 12.7612 18.9449L13.1823 19.7124C13.451 20.2024 14.0488 20.3713 14.5153 20.0886L14.896 19.8571C15.189 20.1026 15.512 20.2991 15.8605 20.4437V20.752H5.02048C4.34675 20.752 3.79859 21.3287 3.79859 22.0378L3.79911 22.8477C3.79911 23.6106 3.22228 24.2474 2.51163 24.2673C2.50045 24.2677 2.48918 24.2676 2.47744 24.2676C2.12416 24.2672 1.79207 24.1225 1.54251 23.8602C1.29267 23.5972 1.15504 23.2477 1.15504 22.876V5.92969C1.15504 5.72744 0.999314 5.56348 0.807132 5.56348C0.61495 5.56348 0.459229 5.72744 0.459229 5.92969V22.876C0.459229 23.4433 0.669223 23.9768 1.05067 24.3783C1.4316 24.7786 1.93801 24.9994 2.478 25H10.3754C10.5676 25 10.7233 24.836 10.7233 24.6338C10.7233 24.4315 10.5676 24.2676 10.3754 24.2676H3.98707C4.3025 23.8866 4.49491 23.3879 4.49491 22.8474L4.4944 22.0376C4.4944 21.7325 4.73042 21.4844 5.02048 21.4844H22.2779C22.5676 21.4844 22.8034 21.7326 22.8034 22.0376V22.876C22.8034 23.2475 22.6659 23.5971 22.4166 23.86C22.1665 24.1229 21.8344 24.2676 21.4814 24.2676H11.9989C11.8067 24.2676 11.651 24.4315 11.651 24.6338C11.651 24.836 11.8067 25 11.9989 25H21.4814C22.02 25 22.5268 24.7792 22.9086 24.3779C23.2895 23.9763 23.4992 23.443 23.4992 22.876V22.0376C23.4993 21.3287 22.9514 20.752 22.2779 20.752ZM19.4638 20.752H18.6539V20.4437C18.9423 20.324 19.2129 20.1683 19.4638 19.9791V20.752ZM16.3141 19.8367C15.8861 19.6929 15.5009 19.4585 15.1689 19.14C15.057 19.0326 14.8918 19.0137 14.7605 19.0936L14.1677 19.4541C14.0337 19.5353 13.862 19.4869 13.7848 19.3462L13.3635 18.5785C13.2864 18.4379 13.3324 18.2574 13.4659 18.1761L14.0597 17.8152C14.1907 17.7356 14.2578 17.576 14.2257 17.4204C14.1783 17.1907 14.1543 16.9564 14.1543 16.7242C14.1543 16.4919 14.1783 16.2577 14.2257 16.0279C14.2578 15.8723 14.1907 15.7127 14.0597 15.6331L13.4661 15.2724C13.3325 15.1911 13.2865 15.0104 13.3636 14.8697L13.7849 14.102C13.862 13.9614 14.0337 13.913 14.1672 13.9939L14.7605 14.3547C14.8916 14.4346 15.0569 14.4157 15.1689 14.3083C15.5008 13.9898 15.8861 13.7554 16.3141 13.6117C16.4584 13.5632 16.5563 13.4222 16.5563 13.2628V12.5421C16.5563 12.3797 16.6818 12.2477 16.836 12.2477H17.6784C17.8326 12.2477 17.958 12.3797 17.958 12.5421V13.2628C17.958 13.4222 18.0559 13.5632 18.2002 13.6117C18.6282 13.7554 19.0135 13.9898 19.3454 14.3083C19.4573 14.4158 19.6227 14.4346 19.7539 14.3547L20.3473 13.9941C20.4812 13.9129 20.6528 13.9614 20.7299 14.102L21.1507 14.8697C21.2278 15.0104 21.1819 15.1911 21.0483 15.2724L20.455 15.6332C20.3241 15.7128 20.257 15.8725 20.2891 16.028C20.3365 16.2575 20.3605 16.4917 20.3605 16.7242C20.3605 16.9567 20.3365 17.1909 20.2891 17.4204C20.257 17.576 20.3241 17.7356 20.455 17.8152L21.0482 18.176C21.113 18.2154 21.1594 18.2791 21.1787 18.3552C21.1981 18.4312 21.1881 18.5105 21.1506 18.5788L20.7299 19.3463C20.6528 19.4871 20.4812 19.5355 20.3474 19.4544L19.7539 19.0937C19.6227 19.0138 19.4573 19.0327 19.3454 19.1401C19.0135 19.4586 18.6282 19.693 18.2002 19.8368C18.056 19.8852 17.958 20.0263 17.958 20.1856V20.752H16.5562V20.1855C16.5563 20.0262 16.4584 19.8851 16.3141 19.8367Z" fill="black"/>
<path d="M11.1337 5.50869C11.4053 5.34995 11.574 5.04521 11.574 4.71338V2.57617C11.574 2.37393 11.4183 2.20996 11.2261 2.20996C11.034 2.20996 10.8782 2.37393 10.8782 2.57617V4.71338C10.8782 4.7793 10.8467 4.83867 10.796 4.86831C10.7057 4.92105 10.5883 4.81187 10.5753 4.79922C10.4335 4.66265 10.2135 4.67285 10.0837 4.82207C9.95397 4.97124 9.96371 5.20288 10.1054 5.33945C10.2591 5.48745 10.4921 5.61567 10.747 5.61567C10.8728 5.61572 11.0041 5.58437 11.1337 5.50869Z" fill="black"/>
<path d="M13.5033 2.9668C13.6955 2.9668 13.8512 2.80283 13.8512 2.60059C13.8512 2.39834 13.6955 2.23438 13.5033 2.23438H12.4426C12.2504 2.23438 12.0947 2.39834 12.0947 2.60059V5.25024C12.0947 5.45249 12.2504 5.61646 12.4426 5.61646H13.5033C13.6955 5.61646 13.8512 5.45249 13.8512 5.25024C13.8512 5.048 13.6955 4.88403 13.5033 4.88403H12.7905V4.2916H13.4251C13.6172 4.2916 13.773 4.12764 13.773 3.92539C13.773 3.72314 13.6172 3.55918 13.4251 3.55918H12.7905V2.9668H13.5033Z" fill="black"/>
<path d="M15.6274 2.94238C15.8123 2.94238 15.9905 2.99966 16.1429 3.10796C16.3021 3.22119 16.5183 3.1771 16.6259 3.00952C16.7334 2.84194 16.6916 2.61431 16.5323 2.50107C16.2646 2.31064 15.9516 2.20996 15.6274 2.20996C14.7352 2.20996 14.0093 2.97402 14.0093 3.91323C14.0093 4.85244 14.7351 5.6165 15.6274 5.6165C15.9848 5.6165 16.3059 5.49263 16.556 5.25825C16.605 5.2123 16.6515 5.16177 16.6942 5.10811C16.8177 4.95308 16.7983 4.72212 16.651 4.59219C16.5038 4.4623 16.2843 4.48262 16.1609 4.63765C16.1398 4.66416 16.117 4.68901 16.0932 4.71133C15.9709 4.82598 15.8141 4.88408 15.6274 4.88408C15.1188 4.88408 14.7051 4.44858 14.7051 3.91323C14.7051 3.37788 15.1189 2.94238 15.6274 2.94238Z" fill="black"/>
<path d="M19.0737 2.57617C19.0737 2.37393 18.918 2.20996 18.7258 2.20996H17.3229C17.1307 2.20996 16.975 2.37393 16.975 2.57617C16.975 2.77842 17.1307 2.94238 17.3229 2.94238H17.6737V5.25024C17.6737 5.45249 17.8294 5.61646 18.0216 5.61646C18.2137 5.61646 18.3695 5.45249 18.3695 5.25024V2.94238H18.7259C18.918 2.94238 19.0737 2.77842 19.0737 2.57617Z" fill="black"/>
<path d="M4.40613 5.25024C4.40613 5.45249 4.56185 5.61646 4.75403 5.61646C4.94621 5.61646 5.10194 5.45249 5.10194 5.25024V4.57798L5.86635 5.49219C5.9351 5.57446 6.03116 5.61646 6.12765 5.61646C6.20929 5.61646 6.29126 5.58638 6.35736 5.52515C6.50158 5.3915 6.51558 5.16011 6.38867 5.0083L5.7739 4.27305C6.18188 4.12832 6.47546 3.73398 6.47546 3.27114C6.47546 2.68599 6.00649 2.20996 5.42999 2.20996H4.75491C4.66246 2.20996 4.57377 2.24868 4.5085 2.31763C4.44324 2.38657 4.40673 2.48003 4.40701 2.57734C4.40696 2.57739 4.40613 5.25024 4.40613 5.25024ZM5.42994 2.94238C5.61948 2.94238 5.77961 3.09292 5.77961 3.27114C5.77961 3.44937 5.61948 3.5999 5.42994 3.5999C5.3534 3.5999 5.22769 3.60039 5.10555 3.60103C5.10495 3.47617 5.10421 3.07349 5.10384 2.94238H5.42994Z" fill="black"/>
<path d="M1.91663 5.25024C1.91663 5.45249 2.07235 5.61646 2.26453 5.61646C2.45671 5.61646 2.61244 5.45249 2.61244 5.25024V4.45293C2.74622 4.45225 2.88765 4.45161 2.97189 4.45161C3.56676 4.45161 4.05072 3.94878 4.05072 3.33076C4.05072 2.71274 3.56681 2.20996 2.97189 2.20996H2.26453C2.17208 2.20996 2.08344 2.24868 2.01812 2.31763C1.95286 2.38652 1.91635 2.47998 1.91663 2.5773V5.25024ZM2.97189 2.94238C3.17952 2.94238 3.35491 3.12026 3.35491 3.33081C3.35491 3.54136 3.17952 3.71924 2.97189 3.71924C2.88821 3.71924 2.74849 3.71982 2.6154 3.72056C2.61471 3.57529 2.61378 3.09473 2.61341 2.94243H2.97189V2.94238Z" fill="black"/>
<path d="M9.92485 3.91317C9.92485 2.97401 9.19898 2.2099 8.30672 2.2099C7.41446 2.2099 6.6886 2.97396 6.6886 3.91317C6.6886 4.85238 7.41446 5.61644 8.30672 5.61644C9.19898 5.61644 9.92485 4.85238 9.92485 3.91317ZM7.38441 3.91317C7.38441 3.37787 7.79813 2.94232 8.30672 2.94232C8.81531 2.94232 9.22904 3.37782 9.22904 3.91317C9.22904 4.44852 8.81531 4.88402 8.30672 4.88402C7.79813 4.88402 7.38441 4.44852 7.38441 3.91317Z" fill="black"/>
<path d="M2.69604 6.71588C2.69604 6.91813 2.85177 7.08209 3.04395 7.08209H17.5749C17.7671 7.08209 17.9228 6.91813 17.9228 6.71588C17.9228 6.51364 17.7671 6.34967 17.5749 6.34967H3.04395C2.85177 6.34967 2.69604 6.51359 2.69604 6.71588Z" fill="black"/>
<path d="M9.19116 8.00586H3.37342C2.64208 8.00586 2.04712 8.63218 2.04712 9.402V12.7005C2.04712 13.4703 2.64208 14.0966 3.37342 14.0966H9.19112C9.9225 14.0966 10.5175 13.4703 10.5175 12.7005V9.402C10.5175 8.63213 9.9225 8.00586 9.19116 8.00586ZM9.82166 12.7005C9.82166 13.0665 9.53879 13.3642 9.19112 13.3642H3.37342C3.0258 13.3642 2.74293 13.0665 2.74293 12.7005V9.402C2.74293 9.03603 3.0258 8.73828 3.37342 8.73828H9.19112C9.53879 8.73828 9.82166 9.03603 9.82166 9.402V12.7005Z" fill="black"/>
<path d="M18.5696 9.78473C18.5696 9.58248 18.4139 9.41852 18.2217 9.41852H11.7429C11.5507 9.41852 11.395 9.58248 11.395 9.78473C11.395 9.98698 11.5507 10.1509 11.7429 10.1509H18.2217C18.4139 10.1509 18.5696 9.98698 18.5696 9.78473Z" fill="black"/>
<path d="M16.0707 11.1974C16.0707 10.9951 15.9149 10.8311 15.7228 10.8311H11.7429C11.5507 10.8311 11.395 10.9951 11.395 11.1974C11.395 11.3996 11.5507 11.5636 11.7429 11.5636H15.7228C15.9149 11.5636 16.0707 11.3996 16.0707 11.1974Z" fill="black"/>
<path d="M2.04712 15.3866C2.04712 15.5888 2.20284 15.7528 2.39502 15.7528H11.743C11.9351 15.7528 12.0909 15.5888 12.0909 15.3866C12.0909 15.1844 11.9351 15.0204 11.743 15.0204H2.39502C2.20284 15.0204 2.04712 15.1844 2.04712 15.3866Z" fill="black"/>
<path d="M12.0908 18.2119C12.0908 18.0097 11.9351 17.8457 11.7429 17.8457H2.39502C2.20284 17.8457 2.04712 18.0097 2.04712 18.2119C2.04712 18.4142 2.20284 18.5781 2.39502 18.5781H11.743C11.9351 18.5781 12.0908 18.4142 12.0908 18.2119Z" fill="black"/>
<path d="M2.39502 19.2988C2.20284 19.2988 2.04712 19.4628 2.04712 19.665C2.04712 19.8673 2.20284 20.0312 2.39502 20.0312H6.88391C7.07609 20.0312 7.23181 19.8673 7.23181 19.665C7.23181 19.4628 7.07609 19.2988 6.88391 19.2988H2.39502Z" fill="black"/>
<path d="M12.6924 16.7993C12.6924 16.597 12.5367 16.433 12.3445 16.433H2.39502C2.20284 16.433 2.04712 16.597 2.04712 16.7993C2.04712 17.0015 2.20284 17.1655 2.39502 17.1655H12.3445C12.5367 17.1655 12.6924 17.0015 12.6924 16.7993Z" fill="black"/>
<path d="M5.75618 10.7337H3.58619C3.394 10.7337 3.23828 10.8977 3.23828 11.0999V12.5613C3.23828 12.7636 3.394 12.9275 3.58619 12.9275H5.75613C5.94831 12.9275 6.10403 12.7636 6.10403 12.5613V11.0999C6.10408 10.8977 5.94831 10.7337 5.75618 10.7337ZM5.40827 12.1951H3.93409V11.4661H5.40823V12.1951H5.40827Z" fill="black"/>
<path d="M8.97842 9.38605H6.80848C6.61629 9.38605 6.46057 9.55001 6.46057 9.75226V12.5613C6.46057 12.7636 6.61629 12.9276 6.80848 12.9276H8.97842C9.1706 12.9276 9.32632 12.7636 9.32632 12.5613V9.75226C9.32632 9.55001 9.17056 9.38605 8.97842 9.38605ZM8.63052 12.1951H7.15638V10.1184H8.63052V12.1951Z" fill="black"/>
</svg>
