<svg width="100" height="100" viewBox="0 0 100 100" fill="none" xmlns="http://www.w3.org/2000/svg">
<path d="M60 98.3335H23.3334C22.366 98.3373 21.4186 98.0586 20.6074 97.5316C19.7962 97.0046 19.1564 96.2522 18.7667 95.3668L18.3334 93.3335V76.6668C18.3321 74.2589 18.8054 71.8743 19.7262 69.6494C20.6471 67.4245 21.9975 65.403 23.7002 63.7003C25.4028 61.9976 27.4244 60.6472 29.6493 59.7264C31.8742 58.8055 34.2588 58.3322 36.6667 58.3335H50C52.897 58.3307 55.7532 59.0162 58.3334 60.3335L60 98.3335Z" fill="#0C70DC"/>
<path d="M48.3334 50V58.3333C48.3334 59.6594 47.8066 60.9312 46.8689 61.8689C45.9312 62.8065 44.6595 63.3333 43.3334 63.3333C42.0073 63.3333 40.7355 62.8065 39.7978 61.8689C38.8602 60.9312 38.3334 59.6594 38.3334 58.3333V50H48.3334Z" fill="#E2AC7F"/>
<path d="M65 18.3334V26.6667L63.3334 28.3334H23.3334L21.6667 26.6667V18.3334C21.6667 13.9131 23.4226 9.67391 26.5482 6.5483C29.6738 3.4227 33.9131 1.66675 38.3334 1.66675H54.3C54.694 1.66845 55.0813 1.76847 55.4268 1.95774C55.7723 2.147 56.0651 2.41952 56.2786 2.75059C56.4922 3.08165 56.6197 3.46078 56.6496 3.8536C56.6795 4.24641 56.6109 4.64049 56.45 5.00008C56.3379 5.2637 56.1735 5.50183 55.9667 5.70008L53.3334 8.33342H55C57.6522 8.33342 60.1957 9.38698 62.0711 11.2623C63.9465 13.1377 65 15.6813 65 18.3334Z" fill="#634A39"/>
<path d="M98.3333 91.6668H58.3333V57.9484C58.3293 57.6128 58.4587 57.2892 58.6931 57.0489C58.9275 56.8086 59.2477 56.6711 59.5833 56.6667H97.0833C97.419 56.6711 97.7392 56.8086 97.9736 57.0489C98.2079 57.2892 98.3373 57.6128 98.3333 57.9484V91.6668Z" fill="#D6DBE3"/>
<path d="M78.3334 80.0001C82.9357 80.0001 86.6667 77.0153 86.6667 73.3334C86.6667 69.6515 82.9357 66.6667 78.3334 66.6667C73.731 66.6667 70 69.6515 70 73.3334C70 77.0153 73.731 80.0001 78.3334 80.0001Z" fill="#F0F2F5"/>
<path d="M98.3334 90V96.6667C98.3334 97.1087 98.1578 97.5326 97.8452 97.8452C97.5326 98.1577 97.1087 98.3333 96.6667 98.3333H58.3334L56.6667 90H98.3334Z" fill="#B9BFCC"/>
<path d="M44.3934 17.8717C46.69 19.93 50.5984 20.8717 53.6917 21.3034C54.9826 21.4861 56.1638 22.1299 57.017 23.1157C57.8702 24.1016 58.3378 25.3629 58.3334 26.6667C58.3334 25.7826 58.6845 24.9348 59.3097 24.3097C59.9348 23.6846 60.7826 23.3334 61.6667 23.3334C62.5507 23.3334 63.3986 23.6846 64.0237 24.3097C64.6488 24.9348 65 25.7826 65 26.6667V31.6667C65 32.9928 64.4732 34.2646 63.5356 35.2022C62.5979 36.1399 61.3261 36.6667 60 36.6667C60 41.087 58.2441 45.3262 55.1185 48.4518C51.9929 51.5774 47.7536 53.3334 43.3334 53.3334C38.9131 53.3334 34.6738 51.5774 31.5482 48.4518C28.4226 45.3262 26.6667 41.087 26.6667 36.6667C25.3406 36.6667 24.0688 36.1399 23.1312 35.2022C22.1935 34.2646 21.6667 32.9928 21.6667 31.6667V26.6667C21.6667 25.7826 22.0179 24.9348 22.643 24.3097C23.2681 23.6846 24.116 23.3334 25 23.3334C25.8841 23.3334 26.7319 23.6846 27.357 24.3097C27.9822 24.9348 28.3334 25.7826 28.3334 26.6667C28.3301 25.3638 28.7983 24.1037 29.6514 23.1188C30.5045 22.134 31.685 21.491 32.975 21.3084C36.0684 20.8767 39.975 19.935 42.2734 17.8767C42.5657 17.6183 42.9422 17.4753 43.3324 17.4744C43.7226 17.4734 44.0998 17.6147 44.3934 17.8717Z" fill="#EEBD91"/>
<path d="M11.6667 98.3335C9.01452 98.3335 6.47098 97.2799 4.59562 95.4046C2.72025 93.5292 1.66669 90.9857 1.66669 88.3335V80.0002C1.66669 79.5581 1.84228 79.1342 2.15484 78.8216C2.4674 78.5091 2.89132 78.3335 3.33335 78.3335H21.6667V88.3335C21.6667 90.9857 20.6131 93.5292 18.7378 95.4046C16.8624 97.2799 14.3189 98.3335 11.6667 98.3335Z" fill="#D6DBE3"/>
<path d="M58.3333 90V98.3333H46.6667C46.2246 98.3333 45.8007 98.1577 45.4882 97.8452C45.1756 97.5326 45 97.1087 45 96.6667V91.6667C45 91.2246 45.1756 90.8007 45.4882 90.4882C45.8007 90.1756 46.2246 90 46.6667 90H58.3333Z" fill="#CCD0DA"/>
<path d="M56.45 5C56.3379 5.26361 56.1735 5.50175 55.9667 5.7L53.3334 8.33333H48.3334C47.8913 8.33333 47.4674 8.15774 47.1548 7.84518C46.8423 7.53262 46.6667 7.10869 46.6667 6.66667C46.6667 6.22464 46.8423 5.80072 47.1548 5.48816C47.4674 5.17559 47.8913 5 48.3334 5H56.45Z" fill="#4C3729"/>
<path d="M11.6667 93.3335C10.3406 93.3335 9.06884 92.8067 8.13115 91.869C7.19347 90.9313 6.66669 89.6596 6.66669 88.3335V85.0002C6.66669 84.5581 6.84228 84.1342 7.15484 83.8217C7.4674 83.5091 7.89133 83.3335 8.33335 83.3335C8.77538 83.3335 9.1993 83.5091 9.51186 83.8217C9.82443 84.1342 10 84.5581 10 85.0002V88.3335C10 88.7755 10.1756 89.1994 10.4882 89.512C10.8007 89.8246 11.2247 90.0002 11.6667 90.0002C12.1087 90.0002 12.5326 90.1758 12.8452 90.4883C13.1578 90.8009 13.3334 91.2248 13.3334 91.6668C13.3334 92.1089 13.1578 92.5328 12.8452 92.8453C12.5326 93.1579 12.1087 93.3335 11.6667 93.3335Z" fill="#F4F4F4"/>
<path d="M43.3333 46.6667C41.7799 46.6724 40.2468 46.3135 38.8573 45.6187C37.4678 44.924 36.2608 43.9129 35.3333 42.6667C35.202 42.4916 35.1065 42.2923 35.0521 42.0803C34.9978 41.8683 34.9858 41.6476 35.0168 41.431C35.0477 41.2143 35.121 41.0058 35.2325 40.8175C35.3441 40.6292 35.4916 40.4647 35.6667 40.3333C35.8418 40.202 36.041 40.1065 36.253 40.0521C36.4651 39.9978 36.6857 39.9858 36.9024 40.0168C37.119 40.0477 37.3275 40.121 37.5158 40.2325C37.7042 40.3441 37.8687 40.4916 38 40.6667C38.621 41.4946 39.4262 42.1667 40.3519 42.6295C41.2776 43.0924 42.2984 43.3333 43.3333 43.3333C44.3683 43.3333 45.3891 43.0924 46.3148 42.6295C47.2405 42.1667 48.0457 41.4946 48.6667 40.6667C48.798 40.4916 48.9625 40.3441 49.1508 40.2325C49.3392 40.121 49.5476 40.0477 49.7643 40.0168C49.981 39.9858 50.2016 39.9978 50.4136 40.0521C50.6257 40.1065 50.8249 40.202 51 40.3333C51.1751 40.4647 51.3226 40.6292 51.4341 40.8175C51.5456 41.0058 51.619 41.2143 51.6499 41.431C51.6809 41.6476 51.6688 41.8683 51.6145 42.0803C51.5602 42.2923 51.4647 42.4916 51.3333 42.6667C50.4058 43.9128 49.1987 44.9238 47.8093 45.6186C46.4198 46.3133 44.8868 46.6723 43.3333 46.6667Z" fill="#C69C79"/>
<path d="M30 85.0002V88.3335C30 90.1016 29.2977 91.7973 28.0474 93.0475C26.7972 94.2978 25.1015 95.0002 23.3334 95.0002H19.1C19.9918 94.0436 20.6681 92.9069 21.0834 91.6668H23.3334C24.2166 91.6642 25.0629 91.3122 25.6875 90.6876C26.312 90.0631 26.6641 89.2167 26.6667 88.3335V85.0002C26.6641 84.1169 26.312 83.2706 25.6875 82.6461C25.0629 82.0215 24.2166 81.6695 23.3334 81.6668H21.6667V78.3335H23.3334C25.1015 78.3335 26.7972 79.0359 28.0474 80.2861C29.2977 81.5364 30 83.2321 30 85.0002Z" fill="#D6DBE3"/>
<path d="M5 73.3333C4.55797 73.3333 4.13405 73.1577 3.82149 72.8452C3.50893 72.5326 3.33333 72.1087 3.33333 71.6667C3.3157 70.4333 3.70721 69.2289 4.44667 68.2417C4.8048 67.7948 4.99996 67.2393 4.99996 66.6667C4.99996 66.094 4.8048 65.5385 4.44667 65.0917C3.70721 64.1044 3.3157 62.9 3.33333 61.6667C3.33333 61.2246 3.50893 60.8007 3.82149 60.4882C4.13405 60.1756 4.55797 60 5 60C5.44203 60 5.86595 60.1756 6.17851 60.4882C6.49107 60.8007 6.66667 61.2246 6.66667 61.6667C6.65057 62.2419 6.84764 62.8029 7.22 63.2417C7.94358 64.2371 8.33331 65.4361 8.33331 66.6667C8.33331 67.8973 7.94358 69.0963 7.22 70.0917C6.84764 70.5305 6.65057 71.0914 6.66667 71.6667C6.66667 72.1087 6.49107 72.5326 6.17851 72.8452C5.86595 73.1577 5.44203 73.3333 5 73.3333Z" fill="#BB8C76"/>
<path d="M13.3333 68.3333C12.8913 68.3333 12.4674 68.1577 12.1548 67.8452C11.8422 67.5326 11.6666 67.1087 11.6666 66.6667C11.649 65.4333 12.0405 64.2289 12.78 63.2417C13.1381 62.7948 13.3333 62.2393 13.3333 61.6667C13.3333 61.094 13.1381 60.5385 12.78 60.0917C12.0405 59.1044 11.649 57.9 11.6666 56.6667C11.6666 56.2246 11.8422 55.8007 12.1548 55.4882C12.4674 55.1756 12.8913 55 13.3333 55C13.7753 55 14.1993 55.1756 14.5118 55.4882C14.8244 55.8007 15 56.2246 15 56.6667C14.9839 57.2419 15.181 57.8029 15.5533 58.2417C16.2769 59.2371 16.6666 60.4361 16.6666 61.6667C16.6666 62.8973 16.2769 64.0963 15.5533 65.0917C15.181 65.5305 14.9839 66.0914 15 66.6667C15 67.1087 14.8244 67.5326 14.5118 67.8452C14.1993 68.1577 13.7753 68.3333 13.3333 68.3333Z" fill="#BB8C76"/>
</svg>
