<svg width="64" height="64" viewBox="0 0 64 64" fill="none" xmlns="http://www.w3.org/2000/svg">
<path d="M0.416531 37.1411V30.0184H9.30947V29.6019H0.416531V23.104H9.87179V22.6875H0V37.5577H9.95509V37.1411H0.416531ZM17.9733 26.8528L14.287 31.7054L10.684 26.8528H10.1425L14.0371 32.0178L9.76765 37.5577H10.2675L14.287 32.3302L18.3274 37.5577H18.848L14.5578 32.0178L18.4732 26.8528H17.9733ZM20.0976 41.2231V34.5586H20.1393C20.3892 35.5305 20.8821 36.3115 21.618 36.9016C22.3538 37.4917 23.291 37.7868 24.4295 37.7868C25.1654 37.7868 25.818 37.6375 26.3872 37.339C26.9565 37.0405 27.432 36.6344 27.8139 36.1206C28.1957 35.6069 28.4873 35.0099 28.6886 34.3295C28.8899 33.6492 28.9906 32.9342 28.9906 32.1844C28.9906 31.3791 28.8864 30.6363 28.6782 29.956C28.4699 29.2756 28.1679 28.6856 27.7722 28.1857C27.3765 27.6859 26.8975 27.2971 26.3352 27.0194C25.7729 26.7417 25.1377 26.6029 24.4295 26.6029C23.8881 26.6029 23.3848 26.6827 22.9196 26.8424C22.4545 27.0021 22.0414 27.2277 21.6804 27.5193C21.3194 27.8108 21.0071 28.1545 20.7432 28.5502C20.4794 28.9459 20.2781 29.3798 20.1393 29.8518H20.0976V26.8528H19.6811V41.2231H20.0976ZM24.4295 37.391C23.1244 37.391 22.0762 36.9433 21.2847 36.0477C20.4933 35.1522 20.0976 33.8644 20.0976 32.1844C20.0976 31.4902 20.1948 30.8307 20.3892 30.2059C20.5836 29.5811 20.8647 29.0327 21.2327 28.5606C21.6006 28.0885 22.0553 27.7136 22.5968 27.436C23.1383 27.1583 23.7492 27.0194 24.4295 27.0194C25.1238 27.0194 25.7312 27.1583 26.2519 27.436C26.7725 27.7136 27.2029 28.092 27.5431 28.571C27.8833 29.05 28.1401 29.5984 28.3137 30.2163C28.4873 30.8342 28.574 31.4902 28.574 32.1844C28.574 32.8092 28.4942 33.4305 28.3345 34.0484C28.1749 34.6662 27.9284 35.2216 27.5952 35.7145C27.262 36.2074 26.835 36.61 26.3144 36.9224C25.7937 37.2348 25.1654 37.391 24.4295 37.391ZM31.2815 37.5577V31.4971C31.2815 30.914 31.3648 30.3447 31.5314 29.7894C31.698 29.234 31.9549 28.7446 32.302 28.3211C32.6491 27.8976 33.0899 27.5644 33.6245 27.3214C34.159 27.0784 34.7942 26.9778 35.5301 27.0194V26.6029C34.8914 26.589 34.3326 26.6584 33.8536 26.8112C33.3745 26.9639 32.9615 27.1721 32.6144 27.436C32.2673 27.6998 31.9896 28.0087 31.7813 28.3627C31.5731 28.7168 31.4203 29.0951 31.3231 29.4978H31.2815V26.8528H30.865V37.5577H31.2815ZM36.0508 32.2885H45.0062C45.034 31.5527 44.9611 30.8446 44.7875 30.1642C44.6139 29.4839 44.3363 28.8799 43.9544 28.3523C43.5726 27.8247 43.0797 27.4012 42.4758 27.0819C41.8718 26.7626 41.1533 26.6029 40.3202 26.6029C39.7232 26.6029 39.14 26.7279 38.5708 26.9778C38.0015 27.2277 37.5017 27.5922 37.0713 28.0712C36.6409 28.5502 36.2937 29.1368 36.0299 29.831C35.7661 30.5252 35.6342 31.3166 35.6342 32.2052C35.6342 32.9966 35.7245 33.736 35.905 34.4233C36.0855 35.1105 36.3632 35.7076 36.738 36.2143C37.1129 36.7211 37.5954 37.1134 38.1855 37.391C38.7756 37.6687 39.4871 37.8006 40.3202 37.7868C41.542 37.7868 42.5695 37.4431 43.4025 36.7558C44.2356 36.0686 44.7285 35.1001 44.8812 33.8505H44.4647C44.2842 35.0307 43.8225 35.9158 43.0797 36.5059C42.3369 37.096 41.4032 37.391 40.2786 37.391C39.5149 37.391 38.8693 37.2591 38.3417 36.9953C37.8141 36.7315 37.3837 36.3705 37.0504 35.9124C36.7172 35.4542 36.4708 34.9162 36.3111 34.2983C36.1514 33.6804 36.0647 33.0105 36.0508 32.2885ZM44.5897 31.872H36.0508C36.0924 31.1223 36.2313 30.4489 36.4673 29.8518C36.7033 29.2548 37.0123 28.7446 37.3941 28.3211C37.7759 27.8976 38.2202 27.5748 38.727 27.3526C39.2338 27.1305 39.7787 27.0194 40.3619 27.0194C41.0561 27.0194 41.667 27.1479 42.1946 27.4047C42.7222 27.6616 43.163 28.0122 43.5171 28.4565C43.8711 28.9008 44.1384 29.4179 44.3189 30.008C44.4994 30.5981 44.5897 31.2194 44.5897 31.872ZM53.6492 30.0184H54.0657C54.0657 28.8244 53.7186 27.9566 53.0244 27.4151C52.3302 26.8736 51.3861 26.6029 50.192 26.6029C49.5255 26.6029 48.9632 26.6862 48.505 26.8528C48.0469 27.0194 47.672 27.2346 47.3804 27.4984C47.0888 27.7622 46.8806 28.0538 46.7556 28.3731C46.6307 28.6925 46.5682 28.9979 46.5682 29.2895C46.5682 29.8727 46.6723 30.3378 46.8806 30.6849C47.0888 31.032 47.4151 31.3028 47.8594 31.4971C48.1649 31.636 48.512 31.7609 48.9007 31.872C49.2895 31.9831 49.7407 32.1011 50.2545 32.2261C50.7127 32.3371 51.1639 32.4482 51.6082 32.5593C52.0525 32.6704 52.4447 32.8196 52.7849 33.0071C53.1251 33.1945 53.4028 33.434 53.618 33.7256C53.8332 34.0171 53.9408 34.399 53.9408 34.871C53.9408 35.3292 53.8332 35.718 53.618 36.0373C53.4028 36.3567 53.1285 36.617 52.7953 36.8183C52.4621 37.0196 52.0907 37.1654 51.6811 37.2557C51.2715 37.3459 50.8723 37.391 50.4836 37.391C49.2201 37.391 48.2517 37.1099 47.5783 36.5476C46.9049 35.9853 46.5682 35.1001 46.5682 33.8922H46.1516C46.1516 35.239 46.5161 36.2248 47.245 36.8496C47.974 37.4744 49.0535 37.7868 50.4836 37.7868C50.9418 37.7868 51.4034 37.7347 51.8685 37.6306C52.3337 37.5264 52.7502 37.3563 53.1181 37.1203C53.4861 36.8843 53.7846 36.5788 54.0137 36.2039C54.2428 35.8291 54.3573 35.3709 54.3573 34.8294C54.3573 34.3157 54.2566 33.8991 54.0553 33.5798C53.854 33.2604 53.5902 32.9966 53.2639 32.7884C52.9376 32.5801 52.5697 32.417 52.1601 32.299C51.7505 32.1809 51.3375 32.0664 50.9209 31.9553C50.3378 31.8026 49.8275 31.6707 49.3902 31.5596C48.9528 31.4485 48.5467 31.3166 48.1718 31.1639C47.8108 31.0112 47.5227 30.7925 47.3075 30.5079C47.0923 30.2232 46.9847 29.8171 46.9847 29.2895C46.9847 29.1923 47.0125 29.0188 47.068 28.7689C47.1236 28.5189 47.2554 28.2655 47.4637 28.0087C47.672 27.7518 47.9913 27.5227 48.4217 27.3214C48.8522 27.1201 49.4422 27.0194 50.192 27.0194C50.7057 27.0194 51.1743 27.075 51.5978 27.186C52.0213 27.2971 52.3857 27.4741 52.6912 27.7171C52.9966 27.9601 53.2327 28.269 53.3993 28.6439C53.5659 29.0188 53.6492 29.477 53.6492 30.0184ZM63.2919 30.0184H63.7084C63.7084 28.8244 63.3613 27.9566 62.6671 27.4151C61.9729 26.8736 61.0288 26.6029 59.8347 26.6029C59.1682 26.6029 58.6059 26.6862 58.1477 26.8528C57.6896 27.0194 57.3147 27.2346 57.0231 27.4984C56.7315 27.7622 56.5233 28.0538 56.3983 28.3731C56.2733 28.6925 56.2109 28.9979 56.2109 29.2895C56.2109 29.8727 56.315 30.3378 56.5233 30.6849C56.7315 31.032 57.0578 31.3028 57.5021 31.4971C57.8076 31.636 58.1547 31.7609 58.5434 31.872C58.9322 31.9831 59.3834 32.1011 59.8972 32.2261C60.3554 32.3371 60.8066 32.4482 61.2509 32.5593C61.6952 32.6704 62.0874 32.8196 62.4276 33.0071C62.7678 33.1945 63.0454 33.434 63.2607 33.7256C63.4759 34.0171 63.5835 34.399 63.5835 34.871C63.5835 35.3292 63.4759 35.718 63.2607 36.0373C63.0454 36.3567 62.7712 36.617 62.438 36.8183C62.1048 37.0196 61.7334 37.1654 61.3238 37.2557C60.9142 37.3459 60.515 37.391 60.1263 37.391C58.8628 37.391 57.8944 37.1099 57.221 36.5476C56.5476 35.9853 56.2109 35.1001 56.2109 33.8922H55.7943C55.7943 35.239 56.1588 36.2248 56.8877 36.8496C57.6167 37.4744 58.6962 37.7868 60.1263 37.7868C60.5844 37.7868 61.0461 37.7347 61.5112 37.6306C61.9764 37.5264 62.3929 37.3563 62.7608 37.1203C63.1288 36.8843 63.4273 36.5788 63.6564 36.2039C63.8855 35.8291 64 35.3709 64 34.8294C64 34.3157 63.8993 33.8991 63.698 33.5798C63.4967 33.2604 63.2329 32.9966 62.9066 32.7884C62.5803 32.5801 62.2124 32.417 61.8028 32.299C61.3932 32.1809 60.9802 32.0664 60.5636 31.9553C59.9805 31.8026 59.4702 31.6707 59.0329 31.5596C58.5955 31.4485 58.1894 31.3166 57.8145 31.1639C57.4535 31.0112 57.1654 30.7925 56.9502 30.5079C56.735 30.2232 56.6274 29.8171 56.6274 29.2895C56.6274 29.1923 56.6552 29.0188 56.7107 28.7689C56.7662 28.5189 56.8981 28.2655 57.1064 28.0087C57.3147 27.7518 57.634 27.5227 58.0644 27.3214C58.4949 27.1201 59.0849 27.0194 59.8347 27.0194C60.3484 27.0194 60.817 27.075 61.2405 27.186C61.664 27.2971 62.0284 27.4741 62.3339 27.7171C62.6393 27.9601 62.8754 28.269 63.042 28.6439C63.2086 29.0188 63.2919 29.477 63.2919 30.0184Z" fill="white"/>
</svg>
