<svg width="64" height="64" viewBox="0 0 64 64" fill="none" xmlns="http://www.w3.org/2000/svg">
<path d="M11.6488 41.1725L17.58 3.16377C17.785 1.86752 19.5238 1.56127 20.1375 2.72002L26.5125 14.6513L11.6488 41.1725ZM54 50L48.1575 15.4013C48.1151 15.154 48.0059 14.923 47.8416 14.7333C47.6774 14.5436 47.4643 14.4025 47.2256 14.3253C46.9869 14.248 46.7316 14.2375 46.4873 14.295C46.2431 14.3525 46.0192 14.4757 45.84 14.6513L10 50L29.92 61.4888C30.5313 61.824 31.2172 61.9998 31.9144 61.9998C32.6115 61.9998 33.2975 61.824 33.9087 61.4888L54 50ZM37.795 19.8663L33.2275 11.1738C33.1139 10.9505 32.9408 10.7629 32.7272 10.632C32.5137 10.501 32.268 10.4317 32.0175 10.4317C31.767 10.4317 31.5213 10.501 31.3078 10.632C31.0942 10.7629 30.9211 10.9505 30.8075 11.1738L10.7288 46.9675L37.795 19.8663Z" fill="url(#paint0_linear_126_21)"/>
<defs>
<linearGradient id="paint0_linear_126_21" x1="32" y1="2" x2="32" y2="61.9998" gradientUnits="userSpaceOnUse">
<stop stop-color="#FF6B00"/>
<stop offset="1" stop-color="#FFD600"/>
</linearGradient>
</defs>
</svg>
