<svg width="64" height="64" viewBox="0 0 64 64" fill="none" xmlns="http://www.w3.org/2000/svg">
<path d="M4 4V60H60V4H4ZM34 47.5C34 52.9512 30.78 55.6087 26.1187 55.6087C21.9087 55.6087 19.465 53.4287 18.225 50.7975L22.51 48.2038C23.3363 49.67 23.9637 50.91 25.7675 50.91C27.2675 50.91 28.5 50.2337 28.5 47.6025V30H34V47.5ZM46.4188 55.4837C41.5325 55.4837 38.375 53.2787 36.8338 50.2337L41.125 47.75C42.25 49.5925 43.7188 50.82 46.3125 50.82C48.4925 50.82 49.7588 49.855 49.7588 48.3512C49.7588 46.5475 48.455 45.9087 46.0488 44.8512L44.7337 44.2863C40.9362 42.6712 38.4188 40.6413 38.4188 36.355C38.4188 32.4087 41.425 29.5263 46.1237 29.5263C49.47 29.5263 51.8737 30.5663 53.605 33.6113L49.5 36.25C48.5975 34.6338 47.625 34 46.1175 34C44.5763 34 43.5988 34.9775 43.5988 36.25C43.5988 37.8288 44.5762 38.4675 46.8312 39.445L48.1463 40.0088C52.62 41.9263 55.1387 43.8838 55.1387 48.2788C55.14 53.0163 51.4188 55.4837 46.4188 55.4837Z" fill="#FFD600"/>
</svg>
