<svg width="64" height="64" viewBox="0 0 64 64" fill="none" xmlns="http://www.w3.org/2000/svg">
<path fill-rule="evenodd" clip-rule="evenodd" d="M59.5891 30.433C59.5314 30.4445 59.4738 30.5714 59.4738 30.6406C59.4623 31.102 59.4507 32.3248 59.4507 33.1553C59.4507 33.1784 59.4852 33.2245 59.5199 33.2245C59.6929 33.236 60.1082 33.2476 60.4658 33.2476C60.9618 33.2476 61.2502 33.1784 61.4117 33.1092C61.8269 32.9016 62.023 32.4516 62.023 31.9556C62.023 30.8367 61.2386 30.4099 60.0735 30.4099C59.9928 30.3984 59.7622 30.3984 59.5891 30.433ZM62.5652 35.5892C62.5652 34.4473 61.7231 33.8128 60.2005 33.8128C60.1313 33.8128 59.6468 33.8012 59.5314 33.8243C59.4968 33.8359 59.4507 33.859 59.4507 33.8936C59.4507 34.7126 59.4392 36.0161 59.4738 36.5235C59.4968 36.7427 59.6584 37.0542 59.8545 37.1465C60.062 37.2619 60.535 37.2849 60.858 37.2849C61.7693 37.2849 62.5652 36.7774 62.5652 35.5892ZM57.236 29.7986C57.3512 29.7986 57.6973 29.8331 58.5856 29.8331C59.4276 29.8331 60.0966 29.8101 60.9157 29.8101C61.9192 29.8101 63.3034 30.1677 63.3034 31.6672C63.3034 32.4055 62.7843 32.9938 62.1037 33.2822C62.0692 33.2938 62.0692 33.3167 62.1037 33.3283C63.0727 33.5706 63.9264 34.1704 63.9264 35.3009C63.9264 36.4083 63.2343 37.1119 62.2307 37.5502C61.6193 37.8155 60.858 37.9078 60.0851 37.9078C59.4968 37.9078 57.9165 37.8386 57.0399 37.8617C56.9476 37.8271 57.1206 37.4118 57.2013 37.3426C57.409 37.331 57.5704 37.3195 57.7896 37.2503C58.1011 37.1696 58.1356 37.0773 58.1818 36.6044C58.2049 36.2006 58.2049 34.7702 58.2049 33.7551C58.2049 32.3593 58.2165 31.4135 58.2049 30.9521C58.1934 30.5945 58.0665 30.4792 57.8127 30.4099C57.6166 30.3753 57.2936 30.3291 57.0283 30.2946C56.9706 30.2369 57.1667 29.8447 57.236 29.7986ZM50.5801 36.9735C50.857 37.1926 51.3991 37.2849 51.8836 37.2849C52.5065 37.2849 53.1294 37.1696 53.7292 36.6274C54.3406 36.0737 54.7674 35.2201 54.7674 33.859C54.7674 32.5554 54.2714 31.4942 53.2563 30.8714C52.6796 30.5137 51.9412 30.3638 51.0876 30.3638C50.8339 30.3638 50.5916 30.3753 50.4417 30.4445C50.4071 30.4676 50.3263 30.5714 50.3263 30.6291C50.3032 30.8598 50.3032 32.6362 50.3032 33.6744C50.3032 34.7472 50.3032 36.2467 50.3263 36.4197C50.3263 36.5928 50.4071 36.8581 50.5801 36.9735ZM47.9616 29.7986C48.1808 29.7986 49.0228 29.8331 49.4266 29.8331C50.1533 29.8331 50.6723 29.7986 52.0451 29.7986C53.1986 29.7986 54.1675 30.1101 54.8597 30.6983C55.7017 31.425 56.1401 32.4286 56.1401 33.6513C56.1401 35.3931 55.3441 36.3967 54.5482 36.9735C53.7523 37.5618 52.7141 37.9078 51.2377 37.9078C50.4533 37.9078 49.1036 37.8847 47.9847 37.8732H47.9731C47.9155 37.7694 48.0654 37.3657 48.1577 37.3541C48.4576 37.3195 48.5383 37.308 48.6883 37.2503C48.9305 37.158 48.9767 37.0311 49.0114 36.6044C49.0459 35.8084 49.0344 34.851 49.0344 33.7667C49.0344 32.9938 49.0459 31.4827 49.0228 30.9982C48.9883 30.5945 48.8153 30.4907 48.4692 30.4214C48.2961 30.3869 48.0654 30.3407 47.7425 30.3062C47.6963 30.2253 47.9039 29.8678 47.9616 29.7986Z" fill="#8E714E"/>
<path fill-rule="evenodd" clip-rule="evenodd" d="M34.0042 37.4232C33.7158 37.3886 33.5082 37.3425 33.2543 37.2271C33.2198 37.204 33.162 37.0888 33.162 37.0426C33.1389 36.6388 33.1389 35.4853 33.1389 34.7125C33.1389 34.0895 33.0352 33.5474 32.7698 33.1667C32.4584 32.7283 32.0085 32.4746 31.4318 32.4746C30.9242 32.4746 30.2436 32.8207 29.6784 33.3052C29.6669 33.3166 29.5746 33.3975 29.5861 33.2706C29.5861 33.1436 29.6092 32.8899 29.6208 32.7169C29.6323 32.5553 29.54 32.4746 29.54 32.4746C29.1708 32.6592 28.1327 32.9015 27.752 32.936C27.4752 32.9937 27.406 33.259 27.6944 33.3513H27.706C28.0173 33.4436 28.225 33.5474 28.3864 33.6512C28.5018 33.7435 28.4903 33.8704 28.4903 33.9742C28.5018 34.8394 28.5018 36.1659 28.4673 36.8927C28.4557 37.181 28.375 37.2848 28.1673 37.3309L28.1903 37.3194C28.0289 37.354 27.902 37.3886 27.7059 37.4117C27.6367 37.4809 27.6367 37.8501 27.7059 37.9308C27.8328 37.9308 28.5018 37.8962 29.0556 37.8962C29.8169 37.8962 30.2091 37.9308 30.4052 37.9308C30.4859 37.8385 30.509 37.4924 30.4628 37.4117C30.2436 37.4001 30.0822 37.3771 29.9323 37.3309C29.7246 37.2848 29.6669 37.181 29.6553 36.9387C29.6323 36.3273 29.6323 35.0355 29.6323 34.1588C29.6323 33.9165 29.7015 33.8011 29.7707 33.7319C30.036 33.5013 30.4628 33.3397 30.8435 33.3397C31.2126 33.3397 31.4549 33.4551 31.6394 33.6051C31.8932 33.8127 31.9739 34.1126 32.0085 34.3318C32.0662 34.8278 32.0432 35.8083 32.0432 36.6619C32.0432 37.1233 32.0085 37.2387 31.8355 37.2963C31.7548 37.3309 31.5471 37.3771 31.3049 37.4001C31.2241 37.4809 31.2472 37.8385 31.3049 37.9193C31.6394 37.9193 32.0316 37.8846 32.6084 37.8846C33.3235 37.8846 33.785 37.9193 33.9695 37.9193C34.0272 37.8501 34.0503 37.5155 34.0041 37.4232H34.0042ZM37.1994 33.0168C36.588 33.0168 36.2074 33.4898 36.2074 34.228C36.2074 34.9777 36.5418 35.8429 37.4878 35.8429C37.6493 35.8429 37.9492 35.7737 38.0876 35.6122C38.3068 35.4046 38.4568 34.9893 38.4568 34.551C38.4568 33.5936 37.9837 33.0168 37.1994 33.0168ZM37.1186 38.1154C36.888 38.1154 36.7264 38.1845 36.6227 38.2423C36.1381 38.5536 35.919 38.8536 35.919 39.2112C35.919 39.5457 36.0458 39.811 36.3228 40.0417C36.6572 40.3301 37.1186 40.4686 37.7069 40.4686C38.8835 40.4686 39.4026 39.8341 39.4026 39.2112C39.4026 38.7728 39.1834 38.4845 38.7336 38.323C38.4106 38.1845 37.8223 38.1154 37.1186 38.1154ZM37.1994 41.1145C36.4958 41.1145 35.9882 40.9645 35.5499 40.63C35.1231 40.307 34.9385 39.8225 34.9385 39.4881C34.9385 39.3958 34.9616 39.1419 35.1692 38.9113C35.2961 38.7728 35.5729 38.5076 36.2305 38.0577C36.2535 38.0462 36.265 38.0346 36.265 38.0115C36.265 37.9884 36.2419 37.9653 36.2189 37.9539C35.6767 37.7462 35.5153 37.4117 35.4691 37.2271V37.204C35.4576 37.1348 35.4345 37.0657 35.5384 36.9964C35.6191 36.9387 35.7344 36.8696 35.8613 36.7888C36.0574 36.6735 36.265 36.5465 36.3919 36.4427C36.415 36.4196 36.415 36.3966 36.415 36.3735C36.415 36.3504 36.3919 36.3273 36.3688 36.3159C35.5614 36.0505 35.1577 35.4507 35.1577 34.551C35.1577 33.9627 35.423 33.432 35.8959 33.0976C36.2189 32.8437 37.0263 32.5323 37.557 32.5323H37.5916C38.1337 32.5438 38.4337 32.6592 38.8604 32.8092C39.0912 32.8899 39.3104 32.9244 39.6103 32.9244C40.0601 32.9244 40.2562 32.7861 40.4177 32.6246C40.4292 32.6476 40.4523 32.7054 40.4639 32.8553C40.4754 33.0053 40.4292 33.2244 40.3138 33.3859C40.2216 33.5127 40.014 33.6051 39.8064 33.6051H39.7486C39.541 33.582 39.4487 33.5589 39.4487 33.5589L39.4026 33.582C39.3911 33.6051 39.4026 33.6281 39.4142 33.6628L39.4257 33.6859C39.4487 33.7897 39.4949 34.1011 39.4949 34.1819C39.4949 35.1277 39.1143 35.5429 38.7105 35.8544C38.3183 36.1428 37.8685 36.3273 37.3609 36.3735C37.3493 36.3735 37.3033 36.3735 37.1994 36.3851C37.1417 36.3851 37.061 36.3966 37.0494 36.3966H37.0379C36.9456 36.4196 36.715 36.535 36.715 36.7311C36.715 36.9041 36.8188 37.1117 37.3147 37.1464C37.4185 37.1579 37.5223 37.1579 37.6377 37.1695C38.2952 37.2156 39.1143 37.2733 39.4949 37.4001C40.0255 37.5962 40.36 38.0692 40.36 38.6345C40.36 39.4881 39.7486 40.284 38.7336 40.7799C38.2376 40.9991 37.7415 41.1145 37.1994 41.1145ZM43.7745 33.0745C43.5322 33.0745 43.313 33.1321 43.1515 33.2475C42.7017 33.5243 42.471 34.0781 42.471 34.8855C42.471 36.3966 43.2323 37.4579 44.3166 37.4579C44.6396 37.4579 44.8934 37.3656 45.1126 37.181C45.447 36.9041 45.6201 36.3504 45.6201 35.5776C45.6201 34.0781 44.8703 33.0745 43.7745 33.0745ZM43.9821 38.0115C42.0211 38.0115 41.3175 36.5696 41.3175 35.22C41.3175 34.2742 41.6981 33.5474 42.4594 33.0283C43.0016 32.6938 43.6476 32.5093 44.2243 32.5093C45.7238 32.5093 46.7736 33.582 46.7736 35.1277C46.7736 36.1774 46.3583 37.0079 45.5624 37.5155C45.1817 37.7692 44.5243 38.0115 43.982 38.0115H43.9821ZM23.4264 33.0745C23.1841 33.0745 22.965 33.1321 22.8034 33.2475C22.3536 33.5243 22.1228 34.0781 22.1228 34.8855C22.1228 36.3966 22.8842 37.4579 23.9685 37.4579C24.2915 37.4579 24.5452 37.3656 24.7644 37.181C25.0989 36.9041 25.272 36.3504 25.272 35.5776C25.272 34.0781 24.5337 33.0745 23.4264 33.0745ZM23.634 38.0115C21.673 38.0115 20.9693 36.5696 20.9693 35.22C20.9693 34.2742 21.35 33.5474 22.1113 33.0283C22.6535 32.6938 23.2995 32.5093 23.8762 32.5093C25.3758 32.5093 26.4255 33.582 26.4255 35.1277C26.4255 36.1774 26.0102 37.0079 25.2143 37.5155C24.8452 37.7692 24.1877 38.0115 23.634 38.0115ZM10.4493 37.8962C10.4262 37.8616 10.4031 37.7578 10.4146 37.6309C10.4146 37.5386 10.4377 37.4809 10.4493 37.4579C10.6915 37.4232 10.8184 37.3886 10.9567 37.354C11.1875 37.2963 11.2798 37.1695 11.2913 36.8811C11.326 36.189 11.326 34.8739 11.3144 33.9627V33.9396C11.3144 33.8358 11.3144 33.7088 11.1875 33.6166C11.0029 33.5013 10.7837 33.3975 10.4954 33.3166C10.3915 33.2821 10.3223 33.2244 10.3339 33.1552C10.3339 33.086 10.4031 33.0053 10.5531 32.9822C10.9337 32.9475 11.9257 32.7054 12.3179 32.5323C12.341 32.5553 12.3756 32.6246 12.3756 32.7169L12.3641 32.8437C12.3525 32.9706 12.341 33.1207 12.341 33.2706C12.341 33.3166 12.3872 33.3513 12.4333 33.3513C12.4564 33.3513 12.4795 33.3397 12.5026 33.3282C13.2408 32.7514 13.9098 32.5438 14.2558 32.5438C14.8211 32.5438 15.2594 32.8092 15.594 33.3628C15.617 33.3975 15.6401 33.4089 15.6747 33.4089C15.6978 33.4089 15.7323 33.3975 15.7439 33.3744C16.4245 32.8553 17.1051 32.5438 17.5549 32.5438C18.6277 32.5438 19.2622 33.3397 19.2622 34.6894C19.2622 35.07 19.2622 35.566 19.2506 36.016C19.2506 36.4196 19.2391 36.7888 19.2391 37.0541C19.2391 37.1117 19.3198 37.2963 19.4467 37.3309C19.6082 37.4117 19.8274 37.4463 20.1158 37.4924H20.1273C20.1504 37.5731 20.1042 37.8731 20.0581 37.9308C19.9888 37.9308 19.885 37.9308 19.7697 37.9193C19.5505 37.9077 19.2391 37.8962 18.8931 37.8962C18.1778 37.8962 17.8087 37.9077 17.4511 37.9308C17.4281 37.8385 17.4165 37.5617 17.4511 37.4924C17.6587 37.4579 17.7625 37.4232 17.8895 37.3886C18.1202 37.3194 18.1778 37.2156 18.1894 36.9156C18.1894 36.6966 18.2355 34.8278 18.1663 34.3779C18.0971 33.9165 17.751 33.3744 16.9897 33.3744C16.7013 33.3744 16.2515 33.4898 15.8131 33.8242C15.7901 33.8473 15.767 33.905 15.767 33.9396V33.9511C15.8131 34.1933 15.8131 34.4703 15.8131 34.897V35.6468C15.8131 36.1659 15.8015 36.6504 15.8131 37.0195C15.8131 37.2733 15.9631 37.3309 16.09 37.3771C16.1592 37.3886 16.2053 37.4001 16.263 37.4117C16.3668 37.4348 16.4707 37.4579 16.6321 37.4924C16.6552 37.5386 16.6552 37.6885 16.6206 37.8154C16.609 37.8846 16.5859 37.9193 16.5745 37.9308C16.1823 37.9193 15.7785 37.9077 15.1902 37.9077C15.0172 37.9077 14.7173 37.9193 14.4635 37.9193C14.2558 37.9193 14.0597 37.9308 13.9444 37.9308C13.9329 37.9077 13.9098 37.827 13.9098 37.7001C13.9098 37.5962 13.9329 37.5155 13.956 37.4924C14.0136 37.4809 14.0597 37.4694 14.1175 37.4694C14.2558 37.4463 14.3712 37.4232 14.4866 37.4001C14.6827 37.3425 14.7518 37.2387 14.7634 36.9849C14.798 36.4082 14.8326 34.7586 14.7518 34.3433C14.6135 33.6743 14.2328 33.3397 13.6214 33.3397C13.2639 33.3397 12.8139 33.5127 12.4448 33.7897C12.3872 33.8358 12.341 33.9511 12.341 34.055V34.7355C12.341 35.566 12.341 36.6043 12.3525 37.0541C12.3641 37.1925 12.4102 37.354 12.6756 37.4117C12.7332 37.4232 12.8255 37.4463 12.9408 37.4579L13.1485 37.4924C13.1716 37.5617 13.16 37.8385 13.1139 37.9308C12.9985 37.9308 12.8601 37.9193 12.6986 37.9193C12.4564 37.9077 12.1449 37.8962 11.7989 37.8962C11.3951 37.8962 11.1068 37.9077 10.876 37.9193C10.7146 37.8962 10.5876 37.8962 10.4493 37.8962Z" fill="#442D22"/>
<path fill-rule="evenodd" clip-rule="evenodd" d="M4.38158 40.6648L3.90865 40.5032C3.90865 40.5032 3.96639 38.0923 3.10126 37.9193C2.5245 37.2503 3.19353 9.54273 5.26981 37.8271C5.26981 37.8271 4.55469 38.1846 4.42777 38.796C4.28931 39.3959 4.38158 40.6648 4.38158 40.6648Z" fill="white"/>
<path fill-rule="evenodd" clip-rule="evenodd" d="M4.38158 40.6648L3.90865 40.5032C3.90865 40.5032 3.96639 38.0923 3.10126 37.9193C2.5245 37.2503 3.19353 9.54273 5.26981 37.8271C5.26981 37.8271 4.55469 38.1846 4.42777 38.796C4.28931 39.3959 4.38158 40.6648 4.38158 40.6648Z" fill="#A6A385"/>
<path fill-rule="evenodd" clip-rule="evenodd" d="M4.63546 38.3345C4.63546 38.3345 8.77658 35.6122 7.80762 29.9483C6.87331 25.8303 4.67 24.4807 4.42781 23.9616C4.16253 23.5925 3.90869 22.9465 3.90869 22.9465L4.0818 34.4009C4.0818 34.4125 3.72414 37.9076 4.63546 38.3345Z" fill="white"/>
<path fill-rule="evenodd" clip-rule="evenodd" d="M4.63546 38.3345C4.63546 38.3345 8.77658 35.6122 7.80762 29.9483C6.87331 25.8303 4.67 24.4807 4.42781 23.9616C4.16253 23.5925 3.90869 22.9465 3.90869 22.9465L4.0818 34.4009C4.0818 34.4125 3.72414 37.9076 4.63546 38.3345Z" fill="#499D4A"/>
<path fill-rule="evenodd" clip-rule="evenodd" d="M3.66651 38.4844C3.66651 38.4844 -0.220865 35.8313 0.00988043 31.1596C0.22897 26.4878 2.97439 24.1924 3.50495 23.7771C3.85107 23.408 3.86262 23.2695 3.88571 22.9004C4.1279 23.4195 4.08181 30.6636 4.11635 31.5172C4.22017 34.8047 3.9318 37.8616 3.66651 38.4844Z" fill="white"/>
<path fill-rule="evenodd" clip-rule="evenodd" d="M3.66651 38.4844C3.66651 38.4844 -0.220865 35.8313 0.00988043 31.1596C0.22897 26.4878 2.97439 24.1924 3.50495 23.7771C3.85107 23.408 3.86262 23.2695 3.88571 22.9004C4.1279 23.4195 4.08181 30.6636 4.11635 31.5172C4.22017 34.8047 3.9318 37.8616 3.66651 38.4844Z" fill="#58AA50"/>
</svg>
