<svg width="64" height="64" viewBox="0 0 64 64" fill="none" xmlns="http://www.w3.org/2000/svg">
<path d="M31.6389 51.5119C31.4222 51.5119 31.2199 51.4541 31.0321 51.353L29.1107 50.2117C28.8217 50.0527 28.9662 49.995 29.0529 49.9661C29.443 49.836 29.5152 49.8071 29.9197 49.576C29.963 49.5471 30.0208 49.5615 30.0642 49.5904L31.5378 50.4717C31.5955 50.5006 31.6678 50.5006 31.7111 50.4717L37.4755 47.1345C37.5332 47.1056 37.5621 47.0478 37.5621 46.9755V40.3155C37.5621 40.2433 37.5332 40.1855 37.4755 40.1566L31.7111 36.8338C31.6533 36.8049 31.5811 36.8049 31.5378 36.8338L25.7734 40.1566C25.7156 40.1855 25.6867 40.2577 25.6867 40.3155V46.9755C25.6867 47.0333 25.7156 47.1056 25.7734 47.1345L27.3481 48.0446C28.2005 48.478 28.7351 47.9724 28.7351 47.4667V40.8934C28.7351 40.8067 28.8073 40.72 28.9084 40.72H29.6452C29.7319 40.72 29.8186 40.7922 29.8186 40.8934V47.4667C29.8186 48.608 29.1974 49.2726 28.1138 49.2726C27.7816 49.2726 27.5215 49.2726 26.7847 48.9114L25.2678 48.0446C24.8922 47.8279 24.661 47.4234 24.661 46.99V40.3299C24.661 39.8965 24.8922 39.492 25.2678 39.2753L31.0321 35.9381C31.3933 35.7358 31.8845 35.7358 32.2457 35.9381L38.01 39.2753C38.3856 39.492 38.6168 39.8965 38.6168 40.3299V46.99C38.6168 47.4234 38.3856 47.8279 38.01 48.0446L32.2457 51.3819C32.0579 51.4685 31.8411 51.5119 31.6389 51.5119ZM33.4159 46.9322C30.8876 46.9322 30.3676 45.7764 30.3676 44.7941C30.3676 44.7074 30.4398 44.6207 30.5409 44.6207H31.2922C31.3788 44.6207 31.4511 44.6785 31.4511 44.7652C31.5667 45.5308 31.8989 45.9065 33.4303 45.9065C34.6439 45.9065 35.1639 45.632 35.1639 44.9819C35.1639 44.6062 35.0195 44.3317 33.1269 44.1439C31.5522 43.985 30.5698 43.6383 30.5698 42.3814C30.5698 41.2112 31.5522 40.5178 33.1992 40.5178C35.0484 40.5178 35.9585 41.1534 36.0741 42.5403C36.0741 42.5837 36.0597 42.627 36.0308 42.6704C36.0019 42.6992 35.9585 42.7281 35.9152 42.7281H35.1639C35.0917 42.7281 35.0195 42.6704 35.005 42.5981C34.8317 41.8035 34.3838 41.5435 33.1992 41.5435C31.87 41.5435 31.7111 42.0058 31.7111 42.3525C31.7111 42.7715 31.8989 42.9015 33.6904 43.1327C35.4673 43.3638 36.3053 43.6961 36.3053 44.9385C36.2908 46.2099 35.2506 46.9322 33.4159 46.9322Z" fill="#539E43"/>
<path d="M13.7535 25.464C13.7535 25.204 13.6091 24.9584 13.3779 24.8283L7.25241 21.3033C7.15128 21.2455 7.0357 21.2166 6.92013 21.2021H6.86234C6.74676 21.2021 6.63119 21.2455 6.53006 21.3033L0.404551 24.8283C0.1734 24.9584 0.0289307 25.204 0.0289307 25.464L0.0433776 34.9412C0.0433776 35.0712 0.115612 35.2012 0.231188 35.259C0.346764 35.3313 0.491233 35.3313 0.592362 35.259L4.23299 33.1787C4.46414 33.0486 4.60861 32.8031 4.60861 32.543V28.1078C4.60861 27.8477 4.75308 27.6021 4.98424 27.4721L6.53006 26.5764C6.64564 26.5042 6.77566 26.4753 6.90568 26.4753C7.0357 26.4753 7.16573 26.5042 7.26685 26.5764L8.81268 27.4721C9.04383 27.6021 9.1883 27.8477 9.1883 28.1078V32.543C9.1883 32.8031 9.33277 33.0486 9.56392 33.1787L13.2046 35.259C13.3201 35.3313 13.4646 35.3313 13.5802 35.259C13.6957 35.2012 13.768 35.0712 13.768 34.9412L13.7535 25.464Z" fill="#333333"/>
<path d="M43.1964 12.4183C43.0808 12.3606 42.9363 12.3606 42.8352 12.4183C42.7196 12.4906 42.6474 12.6062 42.6474 12.7362V22.1267C42.6474 22.2134 42.6041 22.3001 42.5174 22.3578C42.4307 22.4012 42.344 22.4012 42.2573 22.3578L40.726 21.4766C40.4948 21.3466 40.2203 21.3466 39.9892 21.4766L33.8637 25.0161C33.6325 25.1461 33.488 25.3917 33.488 25.6517V32.7163C33.488 32.9764 33.6325 33.222 33.8637 33.352L39.9892 36.8915C40.2203 37.0215 40.4948 37.0215 40.726 36.8915L46.8515 33.352C47.0826 33.222 47.2271 32.9764 47.2271 32.7163V15.1055C47.2271 14.831 47.0826 14.5854 46.8515 14.4554L43.1964 12.4183ZM42.633 30.3904C42.633 30.4626 42.6041 30.5204 42.5463 30.5493L40.4515 31.7628C40.3937 31.7917 40.3214 31.7917 40.2637 31.7628L38.1688 30.5493C38.1111 30.5204 38.0822 30.4481 38.0822 30.3904V27.9633C38.0822 27.891 38.1111 27.8332 38.1688 27.8043L40.2637 26.5908C40.3214 26.5619 40.3937 26.5619 40.4515 26.5908L42.5463 27.8043C42.6041 27.8332 42.633 27.9055 42.633 27.9633V30.3904Z" fill="#333333"/>
<path d="M63.5811 27.9056C63.8122 27.7756 63.9423 27.53 63.9423 27.2699V25.5507C63.9423 25.2907 63.7978 25.0451 63.5811 24.9151L57.4989 21.39C57.2678 21.26 56.9933 21.26 56.7621 21.39L50.6366 24.9295C50.4055 25.0595 50.261 25.3051 50.261 25.5652V32.6297C50.261 32.8898 50.4055 33.1354 50.6366 33.2654L56.7188 36.7327C56.9499 36.8627 57.2244 36.8627 57.4411 36.7327L61.1251 34.6812C61.2407 34.6234 61.3129 34.4934 61.3129 34.3634C61.3129 34.2333 61.2407 34.1033 61.1251 34.0455L54.9707 30.506C54.8551 30.4338 54.7829 30.3182 54.7829 30.1882V27.9778C54.7829 27.8478 54.8551 27.7178 54.9707 27.66L56.8921 26.562C57.0077 26.4898 57.1522 26.4898 57.2678 26.562L59.1892 27.66C59.3048 27.7322 59.377 27.8478 59.377 27.9778V29.7114C59.377 29.8415 59.4492 29.9715 59.5648 30.0293C59.6804 30.1015 59.8249 30.1015 59.9404 30.0293L63.5811 27.9056Z" fill="#333333"/>
<path d="M57.0366 27.5732C57.08 27.5443 57.1378 27.5443 57.1811 27.5732L58.3513 28.2522C58.3946 28.2811 58.4235 28.3244 58.4235 28.3822V29.7402C58.4235 29.798 58.3946 29.8414 58.3513 29.8702L57.1811 30.5493C57.1378 30.5782 57.08 30.5782 57.0366 30.5493L55.8664 29.8702C55.8231 29.8414 55.7942 29.798 55.7942 29.7402V28.3822C55.7942 28.3244 55.8231 28.2811 55.8664 28.2522L57.0366 27.5732Z" fill="#539E43"/>
<mask id="mask0_126_38" style="mask-type:alpha" maskUnits="userSpaceOnUse" x="16" y="21" width="15" height="16">
<path d="M23.9964 21.4188C23.7653 21.2888 23.4908 21.2888 23.2596 21.4188L17.1775 24.9294C16.9463 25.0594 16.8163 25.305 16.8163 25.5651V32.6007C16.8163 32.8608 16.9608 33.1064 17.1775 33.2364L23.2596 36.747C23.4908 36.877 23.7653 36.877 23.9964 36.747L30.0786 33.2364C30.3097 33.1064 30.4398 32.8608 30.4398 32.6007V25.5651C30.4398 25.305 30.2953 25.0594 30.0786 24.9294L23.9964 21.4188Z" fill="white"/>
</mask>
<g mask="url(#mask0_126_38)">
<path d="M23.9964 21.4188C23.7653 21.2888 23.4908 21.2888 23.2596 21.4188L17.1775 24.9294C16.9463 25.0594 16.8163 25.305 16.8163 25.5651V32.6007C16.8163 32.8608 16.9608 33.1064 17.1775 33.2364L23.2596 36.747C23.4908 36.877 23.7653 36.877 23.9964 36.747L30.0786 33.2364C30.3097 33.1064 30.4398 32.8608 30.4398 32.6007V25.5651C30.4398 25.305 30.2953 25.0594 30.0786 24.9294L23.9964 21.4188Z" fill="url(#paint0_linear_126_38)"/>
<path d="M30.0931 24.9295L23.9821 21.4189C23.9243 21.39 23.8521 21.3611 23.7943 21.3467L16.9464 33.0776C17.0042 33.1498 17.0764 33.2076 17.1487 33.251L23.2597 36.7616C23.4331 36.8627 23.6354 36.8916 23.8232 36.8338L30.2521 25.074C30.2087 25.0162 30.1509 24.9729 30.0931 24.9295Z" fill="url(#paint1_linear_126_38)"/>
<path fill-rule="evenodd" clip-rule="evenodd" d="M30.1075 33.2365C30.2809 33.1354 30.4109 32.962 30.4687 32.7742L23.7653 21.3322C23.5919 21.3033 23.4041 21.3178 23.2452 21.4189L17.1775 24.9151L23.722 36.8483C23.8086 36.8338 23.9098 36.8049 23.9965 36.7616L30.1075 33.2365Z" fill="url(#paint2_linear_126_38)"/>
<path fill-rule="evenodd" clip-rule="evenodd" d="M30.1076 33.2365L24.0109 36.7471C23.9243 36.7905 23.8376 36.8194 23.7365 36.8338L23.852 37.0505L30.6132 33.1354V33.0487L30.4398 32.7598C30.4109 32.962 30.2809 33.1354 30.1076 33.2365Z" fill="url(#paint3_linear_126_38)"/>
<path fill-rule="evenodd" clip-rule="evenodd" d="M30.1076 33.2365L24.0109 36.7471C23.9243 36.7905 23.8376 36.8194 23.7365 36.8338L23.852 37.0505L30.6132 33.1354V33.0487L30.4398 32.7598C30.4109 32.962 30.2809 33.1354 30.1076 33.2365Z" fill="url(#paint4_linear_126_38)"/>
</g>
<defs>
<linearGradient id="paint0_linear_126_38" x1="26.1059" y1="24.0358" x2="19.439" y2="34.511" gradientUnits="userSpaceOnUse">
<stop stop-color="#41873F"/>
<stop offset="0.3288" stop-color="#418B3D"/>
<stop offset="0.6352" stop-color="#419637"/>
<stop offset="0.9319" stop-color="#3FA92D"/>
<stop offset="1" stop-color="#3FAE2A"/>
</linearGradient>
<linearGradient id="paint1_linear_126_38" x1="22.7046" y1="29.907" x2="39.4008" y2="20.836" gradientUnits="userSpaceOnUse">
<stop offset="0.1376" stop-color="#41873F"/>
<stop offset="0.4032" stop-color="#54A044"/>
<stop offset="0.7136" stop-color="#66B848"/>
<stop offset="0.9081" stop-color="#6CC04A"/>
</linearGradient>
<linearGradient id="paint2_linear_126_38" x1="16.5942" y1="29.0832" x2="30.668" y2="29.0832" gradientUnits="userSpaceOnUse">
<stop offset="0.0919165" stop-color="#6CC04A"/>
<stop offset="0.2864" stop-color="#66B848"/>
<stop offset="0.5968" stop-color="#54A044"/>
<stop offset="0.8624" stop-color="#41873F"/>
</linearGradient>
<linearGradient id="paint3_linear_126_38" x1="16.5942" y1="34.917" x2="30.668" y2="34.917" gradientUnits="userSpaceOnUse">
<stop offset="0.0919165" stop-color="#6CC04A"/>
<stop offset="0.2864" stop-color="#66B848"/>
<stop offset="0.5968" stop-color="#54A044"/>
<stop offset="0.8624" stop-color="#41873F"/>
</linearGradient>
<linearGradient id="paint4_linear_126_38" x1="32.7184" y1="23.7033" x2="29.1529" y2="42.3862" gradientUnits="userSpaceOnUse">
<stop stop-color="#41873F"/>
<stop offset="0.3288" stop-color="#418B3D"/>
<stop offset="0.6352" stop-color="#419637"/>
<stop offset="0.9319" stop-color="#3FA92D"/>
<stop offset="1" stop-color="#3FAE2A"/>
</linearGradient>
</defs>
</svg>
