<svg width="64" height="64" viewBox="0 0 64 64" fill="none" xmlns="http://www.w3.org/2000/svg">
<path d="M51.3325 22.5899C50.6933 22.3716 50.0496 22.1682 49.4012 21.9799C49.5087 21.5424 49.6079 21.1024 49.6987 20.6599C51.1613 13.5474 50.205 7.8174 46.9412 5.93115C43.8162 4.12115 38.6913 6.0074 33.5213 10.5174C33.0129 10.9624 32.515 11.4207 32.0275 11.8924C31.7025 11.5791 31.3692 11.2724 31.0275 10.9724C25.6087 6.1499 20.1775 4.11865 16.9175 6.01115C13.7925 7.8249 12.8638 13.2111 14.18 19.9524C14.3117 20.6191 14.4596 21.2828 14.6237 21.9436C13.8767 22.1554 13.136 22.3889 12.4025 22.6436C6.0575 24.8624 2 28.3411 2 31.9486C2 35.6761 6.355 39.4137 12.9712 41.6799C13.5079 41.8624 14.0496 42.032 14.5962 42.1887C14.4187 42.8962 14.2617 43.6116 14.125 44.3349C12.875 50.9599 13.85 56.2187 16.9688 58.0212C20.19 59.8824 25.5938 57.9699 30.8612 53.3574C31.2779 52.9924 31.6946 52.607 32.1113 52.2011C32.6379 52.7103 33.1796 53.2045 33.7363 53.6837C38.8363 58.0812 43.8725 59.8574 46.9863 58.0499C50.205 56.1824 51.2513 50.5324 49.8925 43.6586C49.7883 43.1336 49.6683 42.5978 49.5325 42.0512C49.9125 41.9387 50.2846 41.8224 50.6488 41.7024C57.5238 39.4187 62.0025 35.7261 62.0025 31.9524C62 28.3274 57.8125 24.8261 51.3325 22.5899ZM35.2075 12.4549C39.6362 8.59115 43.7762 7.06615 45.6637 8.15615C47.6725 9.3174 48.4538 13.9999 47.1912 20.1412C47.1079 20.5412 47.0179 20.9399 46.9212 21.3374C44.2783 20.7362 41.5982 20.312 38.8988 20.0674C37.3532 17.841 35.6589 15.7216 33.8275 13.7236C34.2758 13.2886 34.735 12.8657 35.205 12.4549H35.2075ZM19.7162 35.0311C20.2587 36.0811 20.8258 37.1182 21.4175 38.1424C22.02 39.1874 22.6479 40.217 23.3013 41.2312C21.4438 41.0292 19.5981 40.7317 17.7712 40.3399C18.3013 38.6249 18.9537 36.8436 19.7162 35.0311ZM19.7162 28.9899C18.9662 27.2161 18.3312 25.4711 17.81 23.7861C19.5225 23.4024 21.3475 23.0886 23.25 22.8511C22.6125 23.8461 21.9992 24.8557 21.41 25.8799C20.8208 26.9041 20.255 27.9407 19.7125 28.9899H19.7162ZM21.0788 32.0111C21.8688 30.3636 22.7196 28.7478 23.6313 27.1636C24.5421 25.5803 25.5117 24.0332 26.54 22.5224C28.325 22.3874 30.155 22.3161 32.0037 22.3161C33.8525 22.3161 35.6938 22.3874 37.4775 22.5236C38.495 24.0311 39.4588 25.5728 40.3688 27.1486C41.2788 28.7245 42.1408 30.3328 42.955 31.9736C42.1517 33.627 41.2917 35.2495 40.375 36.8412C39.4658 38.4245 38.5075 39.9762 37.5 41.4962C35.7188 41.6212 33.875 41.6899 32 41.6899C30.125 41.6899 28.3162 41.6312 26.5675 41.5174C25.5317 40.0016 24.5542 38.4478 23.635 36.8561C22.7158 35.2645 21.8625 33.6495 21.075 32.0111H21.0788ZM42.5938 38.1249C43.1979 37.0766 43.7779 36.0145 44.3338 34.9387C45.0957 36.6663 45.7682 38.4319 46.3488 40.2286C44.5005 40.6448 42.6317 40.964 40.75 41.1849C41.385 40.1774 41.9996 39.1574 42.5938 38.1249ZM44.3088 28.9911C43.7554 27.937 43.18 26.8953 42.5825 25.8661C41.9992 24.8511 41.3913 23.8486 40.7588 22.8586C42.6725 23.1011 44.5088 23.4236 46.23 23.8174C45.6766 25.5731 45.0354 27.2998 44.3088 28.9911ZM32.0288 15.5599C33.2769 16.9238 34.4555 18.3498 35.56 19.8324C33.1975 19.7199 30.8333 19.7199 28.4675 19.8324C29.6338 18.2899 30.8275 16.8587 32.0288 15.5599ZM18.2075 8.2324C20.215 7.0674 24.6538 8.7324 29.3325 12.8911C29.6313 13.1574 29.9325 13.4362 30.2325 13.7249C28.3917 15.7225 26.6855 17.8401 25.125 20.0636C22.4316 20.3063 19.7568 20.7239 17.1175 21.3136C16.965 20.7003 16.8275 20.0828 16.705 19.4612C15.5737 13.6824 16.3225 9.32615 18.2075 8.2324ZM15.2812 39.7136C14.7812 39.5711 14.2875 39.4166 13.8 39.2499C10.875 38.2499 8.45875 36.9449 6.8 35.5236C5.315 34.2499 4.5625 32.9786 4.5625 31.9486C4.5625 29.7599 7.82 26.9674 13.2525 25.0736C13.935 24.8361 14.6233 24.6191 15.3175 24.4224C16.1243 27.0153 17.1014 29.552 18.2425 32.0161C17.0878 34.5143 16.0986 37.0857 15.2812 39.7136ZM29.1725 51.4224C26.8438 53.4624 24.5112 54.9087 22.455 55.6374C20.6075 56.2912 19.1362 56.3099 18.2475 55.7962C16.355 54.7024 15.5675 50.4787 16.6413 44.8137C16.7688 44.147 16.9146 43.4803 17.0788 42.8137C19.7444 43.3879 22.4461 43.78 25.165 43.9874C26.7407 46.2225 28.461 48.3521 30.315 50.3624C29.9425 50.7286 29.5613 51.0812 29.1725 51.4224ZM32.1 48.5199C30.885 47.2062 29.6725 45.7524 28.49 44.1899C29.6392 44.2349 30.8092 44.2574 32 44.2574C33.2225 44.2574 34.4325 44.2312 35.625 44.1774C34.5245 45.6838 33.348 47.1332 32.1 48.5199ZM47.665 52.0937C47.3075 54.0237 46.5887 55.3111 45.7 55.8261C43.8088 56.9236 39.765 55.4974 35.405 51.7362C34.905 51.3062 34.405 50.8449 33.8963 50.3612C35.7141 48.343 37.3941 46.2048 38.925 43.9612C41.659 43.7295 44.3737 43.3098 47.05 42.7049C47.1725 43.1999 47.2808 43.6849 47.375 44.1599C47.9762 47.1974 48.0625 49.9449 47.665 52.0937ZM49.84 39.2636C49.5125 39.3724 49.175 39.4774 48.8325 39.5799C47.9933 36.9748 46.9781 34.4298 45.7938 31.9624C46.9336 29.5279 47.9092 27.0198 48.7137 24.4549C49.3275 24.6336 49.9238 24.8211 50.4975 25.0199C56.05 26.9349 59.4375 29.7699 59.4375 31.9486C59.4375 34.2736 55.7788 37.2911 49.84 39.2636Z" fill="#00D1FF"/>
<path d="M32 37.3188C33.0638 37.3223 34.1047 37.01 34.9909 36.4215C35.8771 35.833 36.5688 34.9947 36.9783 34.0129C37.3878 33.0311 37.4967 31.9498 37.2913 30.906C37.0859 29.8622 36.5754 28.9028 35.8244 28.1494C35.0734 27.3959 34.1157 26.8822 33.0725 26.6734C32.0294 26.4646 30.9478 26.57 29.9646 26.9763C28.9814 27.3826 28.1409 28.0715 27.5495 28.9558C26.9582 29.8401 26.6425 30.88 26.6425 31.9438C26.641 32.6486 26.7784 33.3468 27.0469 33.9984C27.3154 34.6501 27.7097 35.2424 28.2073 35.7416C28.7048 36.2408 29.2959 36.637 29.9467 36.9077C30.5974 37.1783 31.2952 37.318 32 37.3188Z" fill="#00D1FF"/>
</svg>
