<svg width="128" height="128" viewBox="0 0 128 128" fill="none" xmlns="http://www.w3.org/2000/svg">
<path d="M13.2167 56C9.69221 56 7.48944 57.7622 6.60833 61.2867C7.92999 59.5244 9.47194 58.8636 11.2342 59.3042C12.2396 59.5555 12.9582 60.2849 13.7537 61.0924C15.0495 62.4077 16.5493 63.93 19.825 63.93C23.3494 63.93 25.5522 62.1678 26.4333 58.6433C25.1116 60.4056 23.5697 61.0664 21.8075 60.6258C20.802 60.3745 20.0834 59.6451 19.2879 58.8376C17.9921 57.5223 16.4924 56 13.2167 56ZM6.60833 63.93C3.08389 63.93 0.88111 65.6922 0 69.2167C1.32167 67.4544 2.86361 66.7936 4.62583 67.2342C5.63127 67.4855 6.34992 68.2149 7.14536 69.0224C8.44118 70.3377 9.94093 71.86 13.2167 71.86C16.7411 71.86 18.9439 70.0978 19.825 66.5733C18.5033 68.3355 16.9614 68.9964 15.1992 68.5558C14.1937 68.3045 13.4751 67.575 12.6796 66.7676C11.3838 65.4523 9.88405 63.93 6.60833 63.93Z" fill="url(#paint0_linear_126_28)"/>
<path d="M39.648 62.6828H37.3415V67.1471C37.3415 68.3375 38.1227 68.3189 39.648 68.2445V70.0489C36.5602 70.4209 35.3325 69.5652 35.3325 67.1471V62.6828H33.6212V60.7483H35.3325V58.2498L37.3415 57.6546V60.7483H39.648V62.6828ZM48.4405 60.7483H50.4494V70.0489H48.4405V68.7096C47.7337 69.6954 46.6362 70.2907 45.1853 70.2907C42.6555 70.2907 40.5536 68.1515 40.5536 65.3986C40.5536 62.627 42.6555 60.5064 45.1853 60.5064C46.6362 60.5064 47.7337 61.1017 48.4405 62.0689V60.7483ZM45.5015 68.3747C47.1756 68.3747 48.4405 67.1285 48.4405 65.3986C48.4405 63.6686 47.1756 62.4224 45.5015 62.4224C43.8274 62.4224 42.5625 63.6686 42.5625 65.3986C42.5625 67.1285 43.8274 68.3747 45.5015 68.3747ZM53.7977 59.3532C53.0908 59.3532 52.5142 58.7579 52.5142 58.0697C52.5142 57.3628 53.0908 56.7862 53.7977 56.7862C54.5045 56.7862 55.0811 57.3628 55.0811 58.0697C55.0811 58.7579 54.5045 59.3532 53.7977 59.3532ZM52.7932 70.0489V60.7483H54.8021V70.0489H52.7932ZM57.1273 70.0489V56.47H59.1362V70.0489H57.1273ZM72.1757 60.7483H74.2962L71.3758 70.0489H69.4041L67.4696 63.7802L65.5164 70.0489H63.5447L60.6243 60.7483H62.7448L64.5492 67.1657L66.5023 60.7483H68.4182L70.3527 67.1657L72.1757 60.7483ZM76.7888 59.3532C76.0819 59.3532 75.5053 58.7579 75.5053 58.0697C75.5053 57.3628 76.0819 56.7862 76.7888 56.7862C77.4956 56.7862 78.0723 57.3628 78.0723 58.0697C78.0723 58.7579 77.4956 59.3532 76.7888 59.3532ZM75.7843 70.0489V60.7483H77.7932V70.0489H75.7843ZM85.0105 60.5064C87.0938 60.5064 88.5819 61.9201 88.5819 64.3383V70.0489H86.573V64.5429C86.573 63.1292 85.7546 62.3852 84.4897 62.3852C83.169 62.3852 82.1273 63.1664 82.1273 65.0637V70.0489H80.1184V60.7483H82.1273V61.9387C82.7411 60.9715 83.7456 60.5064 85.0105 60.5064ZM98.1058 57.028H100.115V70.0489H98.1058V68.7096C97.3989 69.6954 96.3014 70.2907 94.8505 70.2907C92.3208 70.2907 90.2188 68.1515 90.2188 65.3986C90.2188 62.627 92.3208 60.5064 94.8505 60.5064C96.3014 60.5064 97.3989 61.1017 98.1058 62.0689V57.028ZM95.1668 68.3747C96.8409 68.3747 98.1058 67.1285 98.1058 65.3986C98.1058 63.6686 96.8409 62.4224 95.1668 62.4224C93.4927 62.4224 92.2278 63.6686 92.2278 65.3986C92.2278 67.1285 93.4927 68.3747 95.1668 68.3747ZM106.848 70.2907C104.04 70.2907 101.938 68.1515 101.938 65.3986C101.938 62.627 104.04 60.5064 106.848 60.5064C108.671 60.5064 110.252 61.4551 110.996 62.906L109.266 63.9105C108.857 63.0362 107.946 62.4782 106.83 62.4782C105.193 62.4782 103.947 63.7244 103.947 65.3986C103.947 67.0727 105.193 68.3189 106.83 68.3189C107.946 68.3189 108.857 67.7423 109.304 66.8867L111.034 67.8725C110.252 69.342 108.671 70.2907 106.848 70.2907ZM114.345 63.3152C114.345 65.0079 119.348 63.9849 119.348 67.4261C119.348 69.2862 117.73 70.2907 115.721 70.2907C113.861 70.2907 112.522 69.4536 111.926 68.1143L113.656 67.1099C113.954 67.9469 114.698 68.4492 115.721 68.4492C116.614 68.4492 117.302 68.1515 117.302 67.4075C117.302 65.752 112.298 66.682 112.298 63.3524C112.298 61.6039 113.805 60.5064 115.703 60.5064C117.228 60.5064 118.493 61.2133 119.144 62.441L117.451 63.3896C117.116 62.6642 116.465 62.3294 115.703 62.3294C114.977 62.3294 114.345 62.6456 114.345 63.3152ZM122.92 63.3152C122.92 65.0079 127.924 63.9849 127.924 67.4261C127.924 69.2862 126.305 70.2907 124.296 70.2907C122.436 70.2907 121.097 69.4536 120.502 68.1143L122.232 67.1099C122.529 67.9469 123.273 68.4492 124.296 68.4492C125.189 68.4492 125.877 68.1515 125.877 67.4075C125.877 65.752 120.874 66.682 120.874 63.3524C120.874 61.6039 122.38 60.5064 124.278 60.5064C125.803 60.5064 127.068 61.2133 127.719 62.441L126.026 63.3896C125.691 62.6642 125.04 62.3294 124.278 62.3294C123.552 62.3294 122.92 62.6456 122.92 63.3152Z" fill="#2D3748"/>
<defs>
<linearGradient id="paint0_linear_126_28" x1="-0.734259" y1="61.0752" x2="22.0952" y2="74.2381" gradientUnits="userSpaceOnUse">
<stop stop-color="#2298BD"/>
<stop offset="1" stop-color="#0ED7B5"/>
</linearGradient>
</defs>
</svg>
